<svg width="453" height="98" viewBox="0 0 453 98" fill="none" xmlns="http://www.w3.org/2000/svg">
<g clip-path="url(#clip0_35_2)">
<path d="M218.693 7.44735C218.693 7.44735 212.859 9.78695 206.047 17.2911C199.208 24.8171 195.289 33.2364 198.208 35.4614C199.337 36.326 201.928 36.463 206.649 32.214C210.34 28.9083 214.089 24.5812 216.62 18.378C219.668 10.9457 218.693 7.53322 218.693 7.44735V7.44735ZM255.965 20.9255C248.397 17.0619 242.859 12.326 237.109 9.36495C231.615 6.55255 228.081 5.37962 223.645 5.97335C222.9 6.07335 221.815 6.43948 221.815 6.43948C221.815 6.43948 224.117 14.2286 215.005 27.3483C205.803 40.6322 197.464 40.5698 195.087 36.8916C192.597 33.0436 195.804 25.1816 201.155 18.1843C206.776 10.8807 216.633 4.80775 216.633 4.80775C216.633 4.80775 213.501 2.89109 205.775 7.26869C198.249 11.5384 185.245 21.6911 173.225 38.8239C161.223 55.9343 158.819 65.364 157.101 72.7884C155.372 80.1921 156.959 88.1556 165.172 88.1556C173.399 88.1556 182.957 75.5931 185.66 71.2301C190.681 63.1036 193.944 50.6348 187.132 52.351C183.756 53.2015 181.023 56.9447 179.323 60.514C177.548 64.2051 176.848 67.7312 176.848 67.7312C176.848 67.7312 173.999 68.7479 170.177 71.6025C166.359 74.4629 163.855 77.1963 163.855 77.1963C163.855 77.1963 163.884 71.265 168.619 61.6723C173.327 52.0707 181.997 47.687 186.917 47.278C191.355 46.9072 197.107 50.6698 192.241 64.5551C187.376 78.4327 172.969 95.2504 157.845 95.4952C143.867 95.6806 134.725 77.8536 154.155 46.765C175.631 12.3624 200.868 1.81029 209.067 0.62442C217.251 -0.556913 219.924 3.05508 219.924 3.05508C219.924 3.05508 226.779 -0.120383 235.479 0.471751C245.507 1.15935 253.247 8.23482 263.448 13.1983C260.773 15.7816 258.24 18.4431 255.965 20.9255V20.9255ZM300.889 9.33642C293.967 13.7859 284.38 17.8198 275.151 16.9474C272.82 19.3588 270.328 22.1332 267.811 25.1963C283.821 28.3431 297.8 18.4431 305.253 10.002C309.889 4.73642 312.177 0.0290911 312.177 0.0290911C312.177 0.0290911 307.744 4.92909 300.889 9.33642ZM279.631 54.39C279.845 54.0395 279.915 53.7182 279.915 53.7182C279.915 53.7182 279.757 52.3718 278.457 52.3155C276.939 52.2588 274.865 52.5436 269.428 58.5749C264.004 64.5775 260.716 69.7911 257.855 75.014C254.735 80.7009 253.476 84.9431 255.279 86.0447C255.78 86.3598 256.551 86.3806 257.167 86.2374C258.368 85.9306 259.744 84.7999 261.845 82.3821C262.833 81.252 263.907 79.6416 265.209 77.8536C268.8 72.9536 277.841 57.502 279.631 54.39V54.39ZM223.057 60.9707C223.973 58.5958 225.119 53.9316 222.701 52.114C220.127 50.154 213.528 54.726 213.501 59.4108C213.471 64.1911 218.152 66.364 219.281 66.6583C219.924 66.8441 220.139 66.8155 220.455 66.2999C220.641 65.9646 222.156 63.3526 223.057 60.9707V60.9707ZM218.095 69.6911C217.908 69.6332 215.775 68.6608 213.559 66.8155C211.341 64.9697 210.224 62.8525 210.139 62.6807C210.053 62.5228 209.953 62.6452 209.852 62.7807C209.767 62.9093 209.353 63.2676 205.848 68.4327C202.327 73.5974 196.933 84.2703 201.828 86.0723C204.961 87.2249 210.167 81.7588 213.001 78.1176C215.633 74.7416 218.109 70.4499 218.252 70.1348C218.395 69.8337 218.265 69.7556 218.095 69.6911V69.6911ZM273.477 81.9952C272.161 84.1061 270.66 88.1843 275.036 85.6374C280.344 82.5463 287.955 71.0228 287.955 71.0228H291.391C291.391 71.0228 286.869 78.1911 280.975 84.7286C275.553 90.7233 268.956 96.1593 264.32 95.6364C258.885 94.9874 260.587 87.8692 260.587 87.8692C260.587 87.8692 252.803 96.14 247.437 95.5671C240.199 94.752 242.401 85.7796 242.401 85.7796C242.401 85.7796 234.204 95.8718 228.624 95.5671C219.868 95.0369 222.057 84.3421 224.491 76.8744C225.791 72.8665 227.021 69.7051 227.021 69.7051C227.021 69.7051 226.135 69.9421 224.26 70.2061C223.3 70.3493 221.512 70.4499 221.512 70.4499C221.512 70.4499 217.88 76.8952 214.961 80.7712C212.041 84.6556 199.651 97.9838 192.341 95.3015C185.588 92.8546 187.82 82.4952 191.74 74.2988C197.479 62.3223 213.601 45.1114 222.9 47.365C232.531 49.7036 223.115 67.3094 223.115 67.3094C223.115 67.3094 223.131 67.3665 223.216 67.402C223.417 67.4889 223.916 67.5384 225.077 67.3094C226.921 66.9588 228.611 66.2494 228.611 66.2494C228.611 66.2494 238.296 45.9483 248.996 32.6635C259.7 19.3807 281.06 -3.51105 289.444 2.02549C291.505 3.37695 290.575 8.07069 287.812 13.7572C286.583 14.1436 285.323 14.4864 284.023 14.752C285.883 11.4031 287.097 8.57749 287.456 6.59682C288.715 -0.257309 272.691 14.201 261.245 29.7807C249.813 45.3614 242.944 59.4614 242.944 59.4614C242.944 59.4614 245.264 58.152 248.855 55.2479C252.619 52.2217 257.769 47.4718 263.377 41.6712C267.167 37.765 271.603 32.8577 275.768 27.378C276.999 27.3135 278.213 27.1922 279.4 27.0056C274.764 33.2427 269.9 38.9526 265.752 43.1436C261.203 47.7588 256.267 52.7374 251.944 56.3577C245.121 62.1077 239.843 65.364 239.843 65.364C239.843 65.364 229.827 85.5437 235.264 86.839C238.467 87.6036 244.793 77.8536 244.793 77.8536C244.793 77.8536 253.032 65.2703 258.012 59.6036C264.78 51.8864 270.631 47.4223 276.468 47.3431C279.873 47.2728 281.877 50.8979 281.877 50.8979L283.464 48.4239H293.335C293.335 48.4239 274.967 79.6416 273.477 81.9952V81.9952ZM300.889 9.33642C293.967 13.7859 284.38 17.8198 275.151 16.9474C272.82 19.3588 270.328 22.1332 267.811 25.1963C283.821 28.3431 297.8 18.4431 305.253 10.002C309.889 4.73642 312.177 0.0290911 312.177 0.0290911C312.177 0.0290911 307.744 4.92909 300.889 9.33642ZM162.609 24.7165H153.239L147.947 33.287H157.316L162.609 24.7165ZM118.272 54.3614C122.25 48.9031 133.251 29.7598 133.251 29.7598C133.251 29.7598 133.052 28.4146 131.764 28.3578C130.247 28.2936 127.729 28.8015 122.68 35.1114C117.628 41.4198 113.737 46.4562 110.891 51.6712C107.77 57.3728 106.397 61.4004 108.2 62.4801C108.685 62.7884 109.474 62.8249 110.074 62.6807C111.247 62.3952 112.778 61.2207 114.867 58.7963C115.839 57.6593 116.969 56.1488 118.272 54.3614V54.3614ZM67.9978 28.5072C65.4067 26.5474 58.8254 31.1332 58.7969 35.804C58.7551 40.6046 64.7505 41.9707 65.5078 41.9994C65.5078 41.9994 66.1802 42.1859 66.4515 41.613C66.6223 41.2624 67.4239 39.7531 68.3411 37.378C69.2417 34.9968 70.3994 30.3312 67.9978 28.5072ZM64.0911 45.0031C63.9333 44.9536 61.4302 44.239 59.0109 42.6931C56.5937 41.1348 55.4797 38.8312 55.3917 38.6739C55.2911 38.5228 55.2057 38.6374 55.1073 38.7728C55.0062 38.9031 54.4765 39.575 50.9702 44.739C47.4515 49.904 42.2447 60.4916 47.1234 62.3031C50.2541 63.4603 55.5051 57.9588 58.3385 54.3249C60.9702 50.9483 64.1197 45.7624 64.2483 45.463C64.3781 45.1479 64.2614 45.076 64.0911 45.0031V45.0031ZM140.635 48.1593H144.068C144.068 48.1593 126.884 73.0097 117.17 71.8873C111.719 71.2649 113.321 64.5619 113.321 64.5619C113.321 64.5619 105.71 73.4905 98.7291 71.7155C92.3901 70.0921 96.4827 59.5332 96.4827 59.5332C95.751 59.8187 82.0182 75.3145 72.3869 71.6025C62.3021 67.7025 67.5245 54.7479 69.4406 50.8562C71.0734 47.5723 72.8603 44.3598 72.8603 44.3598C72.8603 44.3598 71.315 44.804 70.3578 45.0255C69.3989 45.2479 67.925 45.5332 67.925 45.5332C67.925 45.5332 63.1603 53.2963 60.2417 57.1723C57.3374 61.0436 44.9343 74.3692 37.6223 71.7155C30.3109 69.0551 32.113 58.8327 36.2187 50.713C42.8734 37.528 58.6671 21.3474 68.1677 23.7572C77.7827 26.2114 69.8437 41.8135 69.8437 41.8135C69.8437 41.8135 71.7587 42.0567 76.3374 38.9307C82.9327 34.4307 91.6327 22.3119 101.061 23.7286C105.495 24.3874 109.617 28.937 103.98 37.5707C102.176 40.3327 99.1431 42.8223 96.8109 40.3755C95.3811 38.8598 96.6406 36.0827 98.1557 34.1739C100.288 31.477 103.235 31.8483 103.235 31.8483C103.235 31.8483 104.795 28.2728 100.846 28.3354C97.6254 28.4083 89.5286 35.8832 84.9363 43.4447C80.7302 50.377 74.3781 62.2015 80.7739 64.7703C86.625 67.1384 97.7833 53.8812 102.949 46.9578C108.102 40.0031 119.875 24.265 129.748 23.6078C133.124 23.3927 135.169 26.4979 135.169 26.4979L136.312 24.6879H146.171C146.171 24.6879 127.586 55.7416 126.126 58.0958C124.984 59.9411 123.466 64.075 127.672 61.7504C131.879 59.4187 140.635 48.1593 140.635 48.1593ZM135.284 97.9135C127.802 92.6635 118.717 90.3588 110.446 90.6739C102.091 91.0296 98.3417 97.2608 98.3417 97.2608C94.5639 90.6739 87.1114 86.6452 75.5926 86.7374C56.9937 86.9588 38.5526 95.5671 23.9306 95.5671C9.90776 95.5671 -0.335472 86.7374 0.00827827 71.0931C0.595257 43.6739 23.7863 18.9291 41.0994 7.80508C51.0707 1.38842 59.4119 -0.499576 64.8639 0.107224C68.8406 0.551491 73.6333 5.14362 70.6139 11.9187C66.1802 21.8406 60.0551 21.0244 60.2859 16.2692C60.3989 13.1983 62.4593 11.2531 64.0057 10.1947C64.9775 9.51495 66.7078 9.32228 67.6254 9.29988C68.4838 8.55668 69.1562 3.14109 62.0177 4.92909C54.8765 6.71816 46.2786 13.714 38.0926 22.764C29.9098 31.7988 17.1775 48.9239 14.0286 66.902C12.5552 75.2285 13.5426 90.4082 33.2713 90.2452C50.0135 90.1009 74.7067 79.0635 97.3983 79.2703C106.211 79.3421 113.88 81.7088 119.846 85.4223C125.741 89.0421 132.781 94.3145 135.284 97.9135Z" fill="#F40000"/>
<path d="M327.224 58.7703V97.278H321.875V58.7703H327.224Z" fill="#100F0D"/>
<path d="M360.864 70.4561C363.039 72.4707 364.127 75.1712 364.127 78.5593V97.278H358.992V79.5212C358.992 77.2405 358.315 75.4483 356.96 74.1468C355.604 72.8457 353.68 72.1947 351.184 72.1947C349.401 72.1947 347.815 72.5332 346.424 73.2103C345.033 73.8873 343.955 74.8067 343.189 75.9645C342.42 77.1244 342.037 78.4343 342.037 79.8952V97.278H336.904V68.1296H341.771V72.1416C342.983 70.5004 344.499 69.3067 346.316 68.5567C348.135 67.8083 350.079 67.4343 352.147 67.4343C355.784 67.4343 358.689 68.4421 360.864 70.4561" fill="#100F0D"/>
<path d="M391.028 91.9561C392.633 91.0827 393.908 89.8353 394.853 88.2129C395.797 86.5905 396.271 84.7452 396.271 82.6764C396.271 80.6088 395.797 78.7728 394.853 77.1687C393.908 75.5635 392.633 74.3249 391.028 73.4509C389.424 72.5775 387.66 72.1416 385.735 72.1416C383.773 72.1416 382.017 72.5957 380.467 73.5045C378.915 74.4135 377.703 75.6697 376.829 77.2755C375.956 78.8796 375.519 80.6807 375.519 82.6764C375.519 84.7087 375.956 86.528 376.829 88.1322C377.703 89.7364 378.915 90.9926 380.467 91.903C382.017 92.8119 383.773 93.266 385.735 93.266C387.66 93.266 389.424 92.8301 391.028 91.9561V91.9561ZM401.245 57.0583V97.278H396.377V92.4108C395.129 94.1582 393.551 95.5212 391.644 96.502C389.736 97.4822 387.571 97.9733 385.145 97.9733C382.293 97.9733 379.744 97.3041 377.497 95.9666C375.251 94.6306 373.487 92.7947 372.203 90.4587C370.919 88.1244 370.277 85.5296 370.277 82.6764C370.277 79.8249 370.919 77.2405 372.203 74.9212C373.487 72.6045 375.251 70.7764 377.497 69.4395C379.744 68.1025 382.293 67.4343 385.145 67.4343C387.499 67.4343 389.603 67.8884 391.457 68.7979C393.309 69.7077 394.861 70.9821 396.109 72.6217V57.0583H401.245Z" fill="#100F0D"/>
<path d="M410.283 68.1296H415.417V97.278H410.283V68.1296ZM410.444 62.8337C409.801 62.2285 409.48 61.4629 409.48 60.5348C409.48 59.6077 409.801 58.8421 410.444 58.2353C411.085 57.6296 411.888 57.326 412.851 57.326C413.812 57.326 414.616 57.6296 415.256 58.2353C415.899 58.8421 416.22 59.6077 416.22 60.5348C416.22 61.4629 415.899 62.2285 415.256 62.8337C414.616 63.4411 413.812 63.7441 412.851 63.7441C411.888 63.7441 411.085 63.4411 410.444 62.8337Z" fill="#100F0D"/>
<path d="M440.527 91.1806C442.648 89.6478 443.816 87.1879 444.029 83.7999H436.436C429.803 83.7999 426.488 85.4577 426.488 88.7744C426.488 90.2364 427.103 91.3864 428.333 92.2233C429.564 93.0619 431.193 93.4801 433.227 93.4801C435.972 93.4801 438.405 92.714 440.527 91.1806V91.1806ZM452.963 92.7843V97.0634C452.32 97.3483 451.481 97.4916 450.448 97.4916C448.844 97.4916 447.453 97.0827 446.277 96.2608C445.1 95.4421 444.405 94.2478 444.191 92.6775C443.015 94.39 441.417 95.6921 439.404 96.5827C437.389 97.4733 435.188 97.9197 432.8 97.9197C429.555 97.9197 426.836 97.1363 424.643 95.5655C422.451 93.9978 421.355 91.7869 421.355 88.9343C421.355 86.0108 422.611 83.7197 425.124 82.0619C427.637 80.404 431.372 79.5749 436.329 79.5749H444.029V79.1999C444.029 76.9536 443.272 75.2077 441.757 73.9588C440.243 72.7113 438.2 72.0864 435.633 72.0864C433.993 72.0864 432.353 72.3545 430.713 72.89C429.073 73.4239 427.645 74.1911 426.435 75.1895L423.6 71.4463C425.133 70.1269 426.987 69.1373 429.163 68.4769C431.337 67.8171 433.565 67.4873 435.848 67.4873C439.912 67.4873 443.131 68.5031 445.501 70.5359C447.872 72.5687 449.057 75.3676 449.057 78.9327V90.6999C449.057 92.2692 449.86 93.053 451.465 93.053C452.035 93.053 452.533 92.964 452.963 92.7843" fill="#100F0D"/>
</g>
<defs>
<clipPath id="clip0_35_2">
<rect width="452.96" height="97.9733" fill="white"/>
</clipPath>
</defs>
</svg>
