<svg width="107" height="55" fill="none" xmlns="http://www.w3.org/2000/svg"><path d="M7.133 36.798H1.109V11.743h6.024v25.055zm25.122 0h-6.004l-8.869-15.59v15.59h-6.05V11.743h6.039l8.868 15.59v-15.59h6.023l-.007 25.055zm3.821 0V11.743h8.07a11.868 11.868 0 015.972 1.505 10.586 10.586 0 014.137 4.255 12.836 12.836 0 011.506 6.152v1.152a12.908 12.908 0 01-1.459 6.166 10.63 10.63 0 01-4.09 4.266 11.61 11.61 0 01-5.894 1.557l-8.242.002zm6.04-20.392v15.746h2.1c1.731 0 3.062-.617 3.993-1.85.93-1.235 1.397-3.067 1.4-5.5v-1.084c0-2.421-.467-4.245-1.4-5.473-.934-1.228-2.287-1.841-4.06-1.841l-2.034.002zm23.178 20.392h-6.021V11.743h6.021v25.055zm19.748-18.039l-5.19.247-2.649 8.462-1.444 4.667-1.445 4.682h-6.455l9.188-25.074h5.68l2.467 6.693-.152.323z" fill="#1D1D1B"/><path fill-rule="evenodd" clip-rule="evenodd" d="M86.088 18.15a10.76 10.76 0 00-3.644.598c-.942.328-1.844.76-2.69 1.287l-.014 3.75-1.4-.005.018-4.504.311-.207a14.801 14.801 0 013.315-1.644 12.16 12.16 0 014.118-.676l-.014 1.4z" fill="#fff"/><path d="M89.684 36.406a9.098 9.098 0 01-.361-.954 7.524 7.524 0 01-.234-.99 6.913 6.913 0 01-2.177 1.669 6.515 6.515 0 01-2.934.637c-1.823 0-3.272-.496-4.345-1.49-1.074-.992-1.61-2.343-1.608-4.053 0-1.744.7-3.092 2.1-4.044 1.4-.952 3.454-1.428 6.161-1.428h2.567v-1.825c0-.895-.258-1.589-.774-2.082-.517-.493-1.28-.74-2.29-.74a5.431 5.431 0 00-1.53.199 4.008 4.008 0 00-1.086.466l-.327 1.996H79.04l.016-4.131a14.106 14.106 0 013.158-1.566c1.247-.434 2.56-.65 3.881-.637 2.306 0 4.178.565 5.617 1.694 1.44 1.13 2.159 2.738 2.159 4.826v8.509c.005.242.025.484.06.724l1.532.205v3.015h-5.779zm-4.343-3.349a4.354 4.354 0 002.066-.49 3.987 3.987 0 001.444-1.23v-2.84h-2.576c-1.068 0-1.877.25-2.427.75a2.333 2.333 0 00-.827 1.799 1.867 1.867 0 00.612 1.48 2.492 2.492 0 001.708.531zm11.692.346l2.427-.516V21.34l-2.684-.516V17.79h7.702v15.09l2.408.516v3.01h-9.853v-3.003z" fill="#EA5B0C"/><path fill-rule="evenodd" clip-rule="evenodd" d="M45.807 26.608l-26.457 14.3-.327-.603 26.458-14.301.326.604zm23.541-6.298l-16.156-1.071.045-.685 16.157 1.071-.046.685z" fill="#1D1D1B"/><path fill-rule="evenodd" clip-rule="evenodd" d="M45.386 26.06l7.584-7.39.48.49-7.585 7.391-.48-.491z" fill="#1D1D1B"/><path fill-rule="evenodd" clip-rule="evenodd" d="M52.924 18.713L62 4.296l.58.365-9.075 14.418-.58-.366z" fill="#1D1D1B"/><path fill-rule="evenodd" clip-rule="evenodd" d="M52.931 19.094L42.834 5.034l.557-.4 10.098 14.06-.557.4z" fill="#1D1D1B"/><path d="M62.293 7.809a3.333 3.333 0 100-6.666 3.333 3.333 0 000 6.666z" fill="#fff"/><path fill-rule="evenodd" clip-rule="evenodd" d="M62.293 2.287a2.189 2.189 0 100 4.378 2.189 2.189 0 000-4.378zm-4.476 2.19a4.476 4.476 0 118.952 0 4.476 4.476 0 01-8.952 0z" fill="#1D1D1B"/><path d="M69.383 21.818a1.853 1.853 0 100-3.706 1.853 1.853 0 000 3.706zM19.18 43.48a2.864 2.864 0 100-5.727 2.864 2.864 0 000 5.727z" fill="#EA5B0C"/><path fill-rule="evenodd" clip-rule="evenodd" d="M60.69 46.463L45.373 26.515l.544-.418 15.319 19.948-.544.418z" fill="#1D1D1B"/><path d="M53.222 20.75a1.853 1.853 0 100-3.707 1.853 1.853 0 000 3.706z" fill="#fff"/><path d="M45.623 28.467a2.173 2.173 0 100-4.346 2.173 2.173 0 000 4.346z" fill="#1D1D1B"/><path d="M60.97 48.103a1.853 1.853 0 100-3.706 1.853 1.853 0 000 3.706zM43.12 6.681a1.853 1.853 0 100-3.706 1.853 1.853 0 000 3.706z" fill="#EA5B0C"/><path fill-rule="evenodd" clip-rule="evenodd" d="M48.994 22.543l3.977-3.874.479.492-3.977 3.874-.479-.492z" fill="#fff"/><path d="M100.748 15.582a2.864 2.864 0 100-5.727 2.864 2.864 0 000 5.727z" fill="#EA5B0C"/><path d="M1.929 49.732h1.01l1.057 4.04h-.504l-.284-.971H1.639l-.273.968H.86l1.069-4.037zm-.18 2.604h1.354l-.558-2.16H2.31l-.562 2.16zm4.913-2.604h.865l1.076 3.346 1.08-3.346h.855v4.037h-.5v-3.463h-.076L8.88 53.624h-.553l-1.076-3.318H7.16v3.463h-.5v-4.037zm5.225 0h2.406v.466h-1.907v1.307h1.557v.467h-1.557v1.337h1.907v.467h-2.406v-4.044zm3.505 0h.507v4.037h-.507v-4.037zm1.337 0h2.738v.487H18.35v3.55h-.5v-3.55h-1.12v-.487zm4.952 4.037h-.5v-1.727l-1.243-2.308h.565l.933 1.771.894-1.773h.57l-1.219 2.31v1.727zm2.035-.651h.535l-.325 1.365h-.483l.273-1.365zm3.076-3.386h.906l1.447 3.521h.11v-3.521h.506v4.037h-.885l-1.47-3.522h-.11v3.522h-.506l.002-4.037zm4.325 0h2.415v.466h-1.906v1.307h1.556v.467h-1.557v1.337h1.907v.467h-2.415v-4.044zm5.068 1.939h1.104v2.035c-.425.067-.854.11-1.283.128-1.198 0-1.54-.79-1.54-2.079 0-1.326.347-2.082 1.52-2.082a8.24 8.24 0 011.303.14l-.023.448a9.947 9.947 0 00-1.214-.11c-.86 0-1.064.535-1.064 1.604s.187 1.603 1.053 1.603c.25-.01.5-.032.749-.07v-1.167h-.605v-.45zm2.302 2.098v-4.037h1.372c1.167 0 1.505.807 1.505 1.953s-.312 2.086-1.505 2.086l-1.372-.002zm1.372-3.568h-.873v3.104h.873c.796 0 .983-.803.983-1.622 0-.82-.187-1.482-.983-1.482zm6.674.409c0 .552-.261.814-.866 1.126l.78.78c.074-.252.13-.508.168-.768h.467a6.246 6.246 0 01-.269 1.069l.7.667-.3.336-.645-.604a1.517 1.517 0 01-1.33.604c-.934 0-1.36-.466-1.36-1.272 0-.588.359-.933.884-1.138a1.183 1.183 0 01-.301-.85c0-.546.43-.884 1.034-.884.677.014 1.038.352 1.038.933zm-.324 2.312l-1.139-1.167c-.425.133-.686.401-.686.796 0 .518.285.826.877.826a1.104 1.104 0 00.945-.455h.003zm-.994-1.634l.151.152c.467-.222.675-.39.675-.78 0-.324-.168-.51-.542-.51a.466.466 0 00-.532.492.854.854 0 00.245.635l.003.011zm4.952-1.556h.905l1.447 3.521h.11v-3.521h.506v4.037h-.884l-1.47-3.522h-.11v3.522h-.506l.002-4.037zm5.05 0h1.01l1.058 4.04h-.507l-.284-.971h-1.569l-.273.97h-.506l1.071-4.04zm-.18 2.604h1.366l-.57-2.16H55.6l-.563 2.16zm5.476-2.112s-.792-.093-1.128-.093c-.518 0-.802.21-.802.616 0 .467.25.588.933.768.796.214 1.127.417 1.127 1.092 0 .842-.406 1.22-1.29 1.22a9.585 9.585 0 01-1.22-.116l.027-.441s.768.086 1.15.086c.535 0 .827-.215.827-.733 0-.383-.234-.523-.87-.686-.832-.233-1.182-.467-1.182-1.18 0-.715.467-1.093 1.284-1.093.391.012.781.05 1.167.117l-.023.443zm3.387 0s-.79-.093-1.127-.093c-.518 0-.802.21-.802.616 0 .467.25.588.933.768.796.214 1.127.417 1.127 1.092 0 .842-.406 1.22-1.29 1.22a9.583 9.583 0 01-1.22-.116l.027-.441s.768.086 1.15.086c.535 0 .827-.215.827-.733 0-.383-.233-.523-.87-.686-.831-.233-1.181-.467-1.181-1.18 0-.715.466-1.093 1.283-1.093.391.012.781.05 1.167.117l-.023.443zm3.49 3.494c-.36.063-.723.102-1.088.116-1.178 0-1.447-.76-1.447-2.074 0-1.36.301-2.087 1.447-2.087.366.01.73.05 1.088.122l-.019.452a9.526 9.526 0 00-1.01-.093c-.82 0-.983.53-.983 1.603 0 1.074.145 1.592.994 1.592.325 0 1-.093 1-.093l.018.462zm.861-1.942c0-1.365.413-2.1 1.568-2.1s1.569.732 1.569 2.1-.414 2.056-1.569 2.056-1.568-.68-1.568-2.056zm2.616 0c0-1.092-.261-1.634-1.045-1.634-.785 0-1.046.542-1.046 1.634 0 1.092.233 1.587 1.046 1.587.812 0 1.05-.46 1.05-1.587h-.005zm1.662-2.044h.866l1.076 3.346 1.08-3.346h.854v4.037h-.5v-3.463h-.086l-1.08 3.318h-.546l-1.076-3.318h-.086v3.463h-.502v-4.037zm6.831 0h.506v4.037h-.507v-4.037zm1.806 0h.908l1.447 3.521h.11v-3.521h.506v4.037h-.885l-1.47-3.522h-.11v3.522h-.506v-4.037zm4.273 0h.506v4.037h-.506v-4.037zm1.325 0h2.75v.487h-1.116v3.55h-.49v-3.55h-1.144v-.487zm3.571 0h.506v4.037h-.506v-4.037zm2.535 0h1.01l1.057 4.04h-.495l-.284-.971h-1.583l-.273.97h-.506l1.073-4.04zm-.18 2.604h1.353l-.558-2.16h-.233l-.562 2.16zm2.772-2.604h2.75v.487h-1.116v3.55h-.5v-3.55h-1.134v-.487zm3.568 0h.507v4.037h-.506v-4.037zm4.551 0l-1.01 4.04h-1.053l-1.022-4.04h.53l.884 3.58h.273l.878-3.58h.52zm1.013 0H107v.466h-1.906v1.307h1.556v.467h-1.556v1.337H107v.467h-2.406v-4.044z" fill="#1D1D1B"/></svg>