<?xml version="1.0" encoding="utf-8"?>
<!-- Generator: Adobe Illustrator 25.0.1, SVG Export Plug-In . SVG Version: 6.00 Build 0)  -->
<svg version="1.1" id="Layer_1" xmlns="http://www.w3.org/2000/svg" xmlns:xlink="http://www.w3.org/1999/xlink" x="0px" y="0px"
	 viewBox="0 0 246 151" style="enable-background:new 0 0 246 151;" xml:space="preserve">
<style type="text/css">
	.st0{fill-rule:evenodd;clip-rule:evenodd;fill:#231F20;}
	.st1{fill:#FFFFFF;}
	.st2{fill:#231F20;}
	.st3{fill-rule:evenodd;clip-rule:evenodd;fill:#FFFFFF;}
	.st4{fill-rule:evenodd;clip-rule:evenodd;fill:#F48120;}
	.st5{fill:#F48120;}
</style>
<g>
	<path class="st0" d="M13.7,117.8c0.2,0,0.3-0.1,0.3-0.3c0,0,0-0.1,0-0.1c0-0.2-0.1-0.4-0.2-0.6c-0.1-0.2-0.3-0.3-0.5-0.2
		c-0.4,0-0.7,0.1-0.8,0.2c-0.1,0.1-0.2,0.2-0.4,0.2c-0.7,0.1-1.2,0.1-1.3,0.1c-0.2-0.2-0.4-0.3-0.6-0.4c-0.1,0-0.2,0.2-0.4,0.5
		c-1.5,0.1-3,0.4-4.5,0.7c-1.1,0.3-1.7,0.7-1.6,1.3c0,0.3,0.1,0.6,0.2,0.9c0.2,0.4,0.5,0.9,0.8,1.2c0.1,0.1,0.1,0.1,0.2,0.1
		c0.1,0,0.2,0,0.2-0.1c0,0,0,0,0,0c0-0.1,0-0.1-0.1-0.2c-0.4-0.6-0.5-1-0.5-1.3c0-0.3,0.2-0.6,0.5-0.8c0.3-0.2,0.9-0.4,1.8-0.6
		c0.8-0.2,1.6-0.3,2.5-0.3c-0.1,0.2-0.4,1-1,2.6c-0.5,1.4-0.9,2.4-1,2.9c-0.1,0-0.1,0-0.2,0c-0.1,0-0.1,0-0.2,0
		c-0.1,0-0.2,0.1-0.3,0.3c-0.3,0.6-0.4,1.2-0.4,1.9c0,0.4,0,0.5,0,0.4c0,0.1,0.1,0.2,0.2,0.2c0.2,0.1,0.5,0.1,0.7,0.2
		c0.2,0,0.3-0.2,0.4-0.5c0.3-1.1,0.7-2.5,1.3-4.1c0.4-1.3,0.9-2.6,1.6-3.9c1-0.1,2-0.2,2.9-0.3C13.5,117.8,13.7,117.8,13.7,117.8z"
		/>
	<path class="st0" d="M16.9,122.9c0.2-0.6,0.3-1.2,0.3-1.8c0-0.1,0-0.3-0.1-0.3c-0.1-0.1-0.3-0.1-0.4-0.1c-0.1-0.1-0.3-0.2-0.4-0.2
		c-0.1,0-0.2,0.1-0.4,0.3c-1,1.2-1.8,2.4-2.5,3.8c0.2-0.6,0.4-1.3,0.6-1.9c0.2-0.5,0.4-1,0.7-1.5c0.1-0.1,0.1-0.2-0.1-0.3
		c-0.2-0.1-0.4-0.2-0.6-0.2c-0.1,0-0.3,0.1-0.4,0.3c-0.4,0.6-0.8,1-1.1,1.3c0,0-0.1,0.1-0.1,0.1c0,0.1,0,0.1,0.1,0.1
		c0.1,0,0.1,0,0.2-0.1c0.2-0.3,0.5-0.5,0.8-0.8c-0.6,1.3-1,2.7-1.4,4.1c-0.1,0.2,0,0.4,0.2,0.5c0,0,0,0,0,0c0.2,0.1,0.4,0.2,0.6,0.2
		c0.1,0,0.3-0.3,0.5-0.8c0.5-1.6,1.4-3,2.5-4.3c0.1-0.2,0.2-0.3,0.3-0.3c0.1,0,0.1,0,0.1,0.1c0,0.4-0.1,0.7-0.2,1
		c-0.1,0.1,0,0.3,0.1,0.4c0.1,0.1,0.3,0.2,0.5,0.3C16.7,123.1,16.8,123,16.9,122.9z"/>
	<path class="st0" d="M22.1,120.9c-0.1,0-0.2,0.1-0.2,0.3c0,0.1-0.1,0.3-0.3,0.6c-0.4,0.7-0.8,1.3-1.3,1.8c-0.6,0.7-1.2,1.3-1.9,1.9
		c-0.2,0.2-0.4,0.3-0.7,0.3c-0.1,0-0.2-0.1-0.2-0.2c0,0,0-0.1,0-0.1c0.1-0.8,0.6-1.6,1.3-2.5c0.5-0.7,1-1.2,1.7-1.7
		c0.3-0.2,0.6-0.2,0.9,0c0,0,0.1,0,0.1,0c0.1,0,0.2,0,0.2-0.1c0,0,0-0.1-0.1-0.1c-0.5-0.4-0.9-0.7-1.1-0.7c-0.3,0-0.5,0.1-0.7,0.3
		c-0.8,0.7-1.5,1.5-2.1,2.4c-0.5,0.7-0.9,1.6-1,2.4c0,0.1,0,0.1,0,0.2c0,0.3,0.2,0.5,0.4,0.6c0.1,0.1,0.3,0.2,0.4,0.2
		c0.2,0,0.4-0.1,0.5-0.2c0.5-0.4,1.1-0.8,1.5-1.3c0.7-0.7,1.3-1.4,1.9-2.2c-0.4,1-0.7,2-0.8,3c0,0.1,0,0.2,0,0.3
		c0,0.1,0.1,0.1,0.2,0.2c0.2,0.1,0.3,0.2,0.5,0.2c0.1,0,0.2-0.1,0.2-0.3c0.2-0.7,0.5-1.4,1-2c0,0,0.1-0.1,0.1-0.2
		c0-0.1,0-0.1-0.1-0.1c-0.1,0-0.2,0.1-0.2,0.1c-0.1,0.1-0.2,0.2-0.2,0.2c-0.1,0.1-0.2,0.2-0.3,0.3c0.3-1,0.6-2,1-3
		c0-0.1,0.1-0.2,0.1-0.3c0-0.1-0.1-0.1-0.2-0.2C22.5,121.1,22.4,121,22.1,120.9z"/>
	<path class="st0" d="M29.8,123.8c0-0.1,0-0.1-0.1-0.1c-0.1,0-0.1,0-0.1,0.1c-0.2,0.3-0.4,0.5-0.6,0.7c0.2-0.5,0.3-0.9,0.4-1.4
		c0.1-0.5,0.2-1.1,0.3-1.6c0-0.3-0.2-0.5-0.7-0.7c-0.1-0.1-0.2-0.1-0.3-0.2c-0.1,0-0.2,0-0.4,0.1c-0.3,0.1-0.8,0.6-1.5,1.3
		c-0.6,0.6-1.1,1.3-1.6,2c0.5-1.3,0.8-2.3,0.9-2.8c0-0.2-0.2-0.4-0.6-0.5c-0.1-0.1-0.2-0.2-0.3-0.2c-0.1,0-0.2,0-0.3,0.1
		c-0.4,0.4-0.7,0.7-0.9,1c0,0-0.1,0.1-0.1,0.1c0,0.1,0,0.1,0.1,0.1c0.1,0,0.1,0,0.2-0.1c0.3-0.2,0.5-0.4,0.6-0.5S25,121,25,121
		s0,0.1,0,0.3c-0.1,0.8-0.3,1.6-0.6,2.3c-0.2,0.8-0.6,1.5-0.9,2.3c0,0.1-0.1,0.1-0.1,0.2c0,0,0.1,0.1,0.2,0.1
		c0.2,0.1,0.4,0.2,0.6,0.2c0.2,0,0.3-0.1,0.4-0.4c0.9-1.8,2-3.3,3.5-4.7c0.1-0.1,0.2-0.2,0.3-0.2c0.1,0,0.2,0.1,0.2,0.3
		c0,0.5-0.1,1.3-0.4,2.2c-0.2,0.8-0.5,1.6-0.9,2.3c0,0.1-0.1,0.1-0.1,0.2c0,0.1,0.1,0.2,0.3,0.2c0.1,0.1,0.3,0.1,0.4,0.1
		c0.1,0,0.3-0.1,0.3-0.2c0.1-0.2,0.2-0.4,0.3-0.6C29,125,29.4,124.3,29.8,123.8C29.7,123.9,29.8,123.9,29.8,123.8z"/>
	<path class="st0" d="M33,120.7c-1.2,0.2-1.8,0.6-1.9,1.2c0,0.2,0.1,0.7,0.5,1.5s0.5,1.3,0.5,1.6c0,0.1,0,0.3-0.1,0.4
		c-0.1,0.2-0.3,0.4-0.6,0.4c-0.7,0.1-1.3,0.2-1.7,0.2c-0.3,0-0.4,0.1-0.4,0.2c0,0.1,0.1,0.2,0.2,0.2l1.2,0.2c0.2,0,0.3,0,0.5,0
		c0.2,0,0.4-0.1,0.5-0.2c0.1-0.1,0.2-0.3,0.3-0.4c0.7-0.2,1.1-0.6,1.1-1.2c0-0.4-0.1-0.8-0.3-1.2c-0.3-0.7-0.4-1.2-0.5-1.4
		c0-0.2-0.1-0.3-0.1-0.5c0-0.3,0.3-0.6,0.9-0.8c0.1,0,0.1-0.1,0.1-0.1C33.2,120.7,33.2,120.7,33,120.7z"/>
	<path class="st0" d="M34,122.1c0.1-0.1,0.1-0.2,0.2-0.3c0.1-0.3,0.2-0.7,0.2-1c0-0.2-0.1-0.3-0.2-0.3c-0.2,0-0.3,0.1-0.5,0.2
		c-0.1,0-0.2,0.2-0.2,0.3c0,0.3,0,0.7-0.2,1c0,0.1,0,0.1,0,0.2c0,0.1,0,0.1,0.1,0.1c0.1,0,0.3-0.1,0.4-0.1
		C33.8,122.2,33.9,122.1,34,122.1z"/>
	<path class="st0" d="M39.1,121c0-0.1-0.1-0.1-0.2-0.1c-0.2,0-0.8-0.1-1.6-0.2c1.2-2.9,2-4.4,2.5-4.7c0.1-0.1,0.3-0.1,0.5-0.1
		c0.3,0,0.6,0.1,0.8,0.2c0.1,0,0.1,0,0.2,0c0.1,0,0.2,0,0.2-0.1s0-0.1-0.1-0.2c-0.8-0.5-1.4-0.8-1.8-0.8c-0.4,0-0.8,0.3-1.2,1
		c-0.5,0.8-1.2,2.3-2,4.5c0,0.1-0.2,0.2-0.4,0.2c-0.2,0-0.5,0.1-0.7,0.2c-0.2,0-0.3,0.1-0.3,0.2c0,0.1,0.1,0.1,0.1,0.2
		c0,0.1,0.1,0.1,0.2,0.1c0.1,0,0.3,0,0.8,0c-1,2.5-1.8,5.2-2.4,7.8c0,0.3,0.1,0.5,0.5,0.7c0.2,0.1,0.4,0.2,0.6,0.2
		c0.1,0,0.1,0,0.1-0.1c0-0.1,0-0.1,0-0.2c0-0.1,0-0.1,0-0.2c0.1-1,0.2-1.9,0.5-2.8c0.5-1.8,1-3.6,1.7-5.3c0.6,0,1.3-0.1,1.9-0.2
		C39,121.1,39.1,121.1,39.1,121z"/>
	<path class="st0" d="M42.8,120.7c-0.1,0-0.3,0-0.4,0.1c-0.3,0.1-0.6,0.2-0.7,0.3c-0.4-0.3-0.7-0.5-0.9-0.5c-0.2,0-0.4,0.1-0.5,0.3
		c-0.6,0.6-1,1.3-1.3,2.1c-0.3,0.7-0.5,1.4-0.6,2.1c0,0.4,0.2,0.8,0.5,1.1c0.4,0.3,0.8,0.4,1.2,0.4c0.2,0.1,0.4,0.1,0.6,0.1
		c0.4,0,0.8-0.2,1.1-0.5c0.7-0.7,1.2-1.6,1.5-2.5c0.2-0.5,0.3-1.1,0.3-1.7c0-0.3-0.1-0.5-0.2-0.7C43.3,120.9,43,120.7,42.8,120.7z
		 M42.8,122.2c-0.1,0.8-0.3,1.6-0.7,2.3c-0.4,0.8-0.8,1.3-1.3,1.6c-0.2,0.1-0.4,0.2-0.7,0.2c-0.5,0-0.8-0.3-0.8-1.1
		c0-0.2,0-0.5,0.1-0.7c0.1-0.5,0.2-0.9,0.4-1.3c0.2-0.5,0.5-1,0.9-1.5c0,0.1,0.1,0.1,0.1,0.1c0.1,0,0.2,0,0.2-0.1l1.2-0.4
		c0.1,0,0.1,0,0.2,0c0.1,0,0.2,0.1,0.2,0.3C42.9,121.6,42.9,121.8,42.8,122.2L42.8,122.2z"/>
	<path class="st0" d="M49.3,120.8c-0.1-0.1-0.3-0.1-0.4-0.1c-0.1-0.1-0.2-0.2-0.4-0.2c-0.1,0-0.2,0.1-0.4,0.3
		c-1,1.2-1.8,2.4-2.5,3.8c0.2-0.6,0.4-1.3,0.6-1.9c0.2-0.5,0.4-1,0.7-1.5c0.1-0.1,0.1-0.2-0.1-0.3c-0.2-0.1-0.4-0.2-0.6-0.2
		c-0.1,0-0.3,0.1-0.4,0.3c-0.4,0.6-0.8,1-1.1,1.3c0,0-0.1,0.1-0.1,0.1c0,0.1,0,0.1,0.1,0.1c0.1,0,0.1,0,0.2-0.1
		c0.2-0.3,0.5-0.5,0.8-0.8c-0.6,1.3-1,2.7-1.4,4.1c-0.1,0.2,0,0.4,0.2,0.5c0,0,0,0,0,0c0.2,0.1,0.4,0.2,0.6,0.2
		c0.1,0,0.3-0.3,0.5-0.8c0.5-1.6,1.4-3,2.5-4.3c0.1-0.2,0.2-0.3,0.3-0.3s0.1,0,0.1,0.1c0,0.4-0.1,0.7-0.2,1c-0.1,0.1,0,0.3,0.1,0.4
		c0.1,0.1,0.3,0.2,0.5,0.3c0.1,0,0.2-0.1,0.2-0.3c0.2-0.6,0.3-1.2,0.3-1.8C49.4,121,49.4,120.9,49.3,120.8z"/>
	<path class="st0" d="M58.9,124c-0.2,0.3-0.4,0.5-0.6,0.7c0.5-1,0.8-2.2,0.8-3.3c0-0.3-0.2-0.6-0.5-0.7c0,0-0.1,0-0.1,0
		c-0.2-0.2-0.4-0.3-0.6-0.3c-0.1,0-0.3,0.1-0.4,0.1c-1.1,1-2,2-2.9,3.2c0.3-0.8,0.4-1.7,0.4-2.6c0-0.1,0-0.3-0.1-0.4
		c-0.1-0.1-0.3-0.2-0.4-0.2c-0.2-0.1-0.3-0.2-0.5-0.2c-0.1,0-0.2,0.1-0.3,0.1c-0.8,0.6-1.7,1.7-2.6,3.2c0.3-0.8,0.5-1.7,0.6-2.5
		c0,0,0-0.1,0-0.1c0-0.1-0.1-0.2-0.2-0.3l-0.4-0.1c-0.2-0.2-0.3-0.2-0.3-0.2s-0.2,0.1-0.3,0.2c-0.3,0.3-0.6,0.7-0.9,1
		c-0.1,0-0.1,0.1-0.1,0.2c0,0.1,0,0.1,0.1,0.1c0.1,0,0.1,0,0.2-0.1l0.4-0.4c0.2-0.2,0.3-0.3,0.4-0.4c0,0.5-0.1,1.4-0.4,2.5
		c-0.2,0.7-0.4,1.4-0.7,2.1c-0.1,0.1-0.2,0.2-0.2,0.2s0,0.1,0.1,0.1c0.2,0.2,0.4,0.3,0.7,0.3c0.1,0,0.2-0.1,0.3-0.3
		c0.4-1,0.9-1.9,1.5-2.8c0.5-0.8,1.2-1.6,1.9-2.2c0.1-0.1,0.2-0.1,0.3-0.1c0.1,0,0.1,0.1,0.1,0.2c0,1.6-0.4,3.1-1.1,4.5
		c0,0.1-0.1,0.2-0.1,0.3c0,0.1,0,0.1,0.1,0.2c0.2,0.1,0.3,0.2,0.5,0.2c0.1,0,0.2,0,0.2,0c0,0,0.1-0.1,0.1-0.2
		c0.5-1.1,1.1-2.2,1.8-3.2c0.5-0.7,1.1-1.3,1.8-1.9c0.1-0.1,0.2-0.1,0.3-0.1c0.1,0,0.2,0.1,0.2,0.2c0,0.7-0.2,1.5-0.4,2.1
		c-0.3,0.9-0.6,1.8-1,2.6c0,0.1-0.1,0.1-0.1,0.2c0,0.1,0.2,0.2,0.6,0.3c0.1,0,0.2,0.1,0.3,0c0,0,0.1-0.1,0.1-0.2
		c0.7-1.2,1.2-2,1.6-2.4c0,0,0.1-0.1,0.1-0.2c0-0.1,0-0.1-0.1-0.1c0,0,0,0,0,0C59.1,123.9,59,124,58.9,124z"/>
	<path class="st0" d="M61.8,120.9c-0.1-0.1-0.2-0.1-0.4-0.2c-0.1,0-0.2,0.1-0.2,0.1c-0.3,0.3-0.6,0.6-0.8,0.9c0,0-0.1,0.1-0.1,0.1
		c0,0.1,0.1,0.1,0.3,0l0.5-0.4c0.1-0.1,0.2-0.1,0.3-0.2c0.1,0,0.1,0.1,0.1,0.3c-0.1,0.8-0.3,1.5-0.6,2.3c-0.2,0.8-0.6,1.5-1,2.2
		c0,0.1-0.1,0.1-0.1,0.2c0,0,0.1,0.1,0.2,0.2c0.2,0.1,0.3,0.1,0.5,0.2c0.1,0,0.2-0.1,0.3-0.2c0.2-0.4,0.4-0.8,0.7-1.2
		c0.4-0.6,0.6-0.9,0.7-1c0.1-0.1,0.1-0.2,0-0.2c0,0-0.1,0-0.1,0.1c-0.2,0.2-0.4,0.5-0.6,0.7c0.4-1,0.7-2.1,1-3.2c0-0.1,0-0.2,0-0.3
		c0-0.1-0.1-0.3-0.2-0.4C62.1,120.9,61.9,120.9,61.8,120.9z"/>
	<path class="st0" d="M63.6,118.7c0-0.1-0.1-0.2-0.1-0.2c-0.2-0.1-0.4-0.2-0.6-0.3c-0.1,0-0.1,0.1-0.3,0.2c-0.3,0.3-0.6,0.6-1,0.8
		c-0.1,0-0.1,0-0.1,0c0,0,0,0,0,0.1c0,0,0.1,0.1,0.1,0.1c0.1,0.1,0.3,0.1,0.4,0.2c0.3,0,0.6,0,0.9-0.2
		C63.4,119.1,63.6,118.8,63.6,118.7z"/>
	<path class="st0" d="M67.7,121.4c0.1-0.1,0.2-0.2,0.3-0.2c0.1,0,0.2,0.1,0.2,0.3c0,0.8-0.1,1.5-0.4,2.2c-0.2,0.8-0.5,1.6-0.9,2.3
		c0,0.1-0.1,0.1-0.1,0.2c0,0.1,0.1,0.2,0.3,0.2c0.1,0.1,0.3,0.1,0.4,0.1c0.1,0,0.2-0.1,0.3-0.2c0.1-0.2,0.2-0.4,0.3-0.6
		c0.5-0.8,0.9-1.4,1.3-1.9c0,0,0-0.1,0-0.1c0-0.1,0-0.1-0.1-0.1c-0.1,0-0.1,0-0.1,0.1c-0.2,0.3-0.4,0.5-0.6,0.7
		c0.2-0.5,0.3-0.9,0.4-1.4c0.1-0.5,0.2-1.1,0.3-1.6c0-0.3-0.2-0.5-0.7-0.7c-0.1-0.1-0.2-0.1-0.3-0.2c-0.1,0-0.2,0-0.4,0.1
		c-0.3,0.1-0.8,0.6-1.5,1.3c-0.6,0.6-1.1,1.3-1.6,2c0.5-1.4,0.8-2.3,0.9-2.8c0-0.2-0.2-0.4-0.6-0.5c-0.1-0.1-0.2-0.2-0.3-0.2
		c-0.1,0-0.2,0-0.2,0.1c-0.4,0.4-0.7,0.7-0.9,1c0,0-0.1,0.1-0.1,0.1c0,0.1,0,0.1,0.1,0.1c0.1,0,0.1,0,0.2-0.1
		c0.3-0.2,0.5-0.4,0.6-0.5c0.1-0.1,0.2-0.2,0.2-0.2c0,0,0,0.1,0,0.3c-0.1,0.8-0.3,1.6-0.6,2.3c-0.2,0.8-0.6,1.5-0.9,2.3
		c0,0.1-0.1,0.1-0.1,0.2c0,0,0.1,0.1,0.2,0.1c0.2,0.1,0.4,0.2,0.6,0.2c0.2,0,0.3-0.1,0.4-0.4C65,124.3,66.2,122.7,67.7,121.4z"/>
	<path class="st0" d="M75,120.5c-0.1,0-0.1,0.1-0.1,0.3c0,0.2-0.1,0.5-0.1,0.7c-0.3,0.8-0.7,1.6-1.2,2.3c-0.5,0.8-1.2,1.5-1.9,2.1
		c-0.1,0.1-0.3,0.2-0.5,0.2c-0.2,0-0.3-0.2-0.3-0.5c0-0.1,0-0.3,0-0.4c0.2-0.7,0.4-1.4,0.9-2c0.3-0.6,0.7-1,1.2-1.5
		c0.2-0.1,0.4-0.2,0.6-0.2c0.2,0,0.3,0,0.5,0.1c0.1,0,0.2,0.1,0.3,0.1c0.1,0,0.2,0,0.2-0.1c0-0.1-0.1-0.1-0.1-0.2
		c-0.4-0.3-0.6-0.5-0.6-0.5c-0.2-0.1-0.4-0.2-0.6-0.2c-0.3,0-0.6,0.2-0.8,0.4c-0.6,0.6-1.2,1.3-1.6,2c-0.5,0.9-0.8,1.7-0.8,2.3
		c0,0.5,0.3,0.9,0.7,1.1c0.2,0.2,0.5,0.3,0.7,0.3c0.3,0,0.5-0.2,0.7-0.4c0.7-0.6,1.4-1.6,2.3-2.9c-1.5,5.7-3.3,8.6-5.5,8.6
		c-0.7,0-1.5-0.3-2.3-1c-0.1,0-0.1-0.1-0.2-0.1c-0.1,0-0.2,0.1-0.2,0.2c0,0.1,0.1,0.2,0.2,0.3c1.1,0.9,2.1,1.4,3.1,1.4
		c2.6,0,4.8-3.8,6.4-11.3c0.1-0.3,0-0.5-0.2-0.6C75.4,120.7,75.2,120.6,75,120.5z"/>
	<path class="st0" d="M88.7,118.7c0.2,0.1,0.5,0.1,0.7-0.1l0.3-0.2c0.1-0.1,0.1-0.2,0.1-0.3c0-0.1,0-0.3-0.1-0.4
		c0-0.2-0.1-0.2-0.2-0.2c-0.1,0-0.2,0-0.2,0.1c-0.1,0.2-0.4,0.3-0.6,0.2c-1.9-0.4-3-0.6-3.2-0.7c0-0.1,0.1-0.2,0.1-0.3
		c0-0.1,0-0.1-0.1-0.1c-0.2,0-0.4,0.1-0.6,0.3c-0.8-0.2-1.7-0.3-2.6-0.3c-0.8,0-1.2,0.2-1.4,0.7c-0.1,0.3-0.2,0.6-0.2,0.9
		c0,0.6,0.1,1.1,0.3,1.6c0,0.1,0.1,0.2,0.2,0.2c0.1,0,0.2-0.1,0.1-0.3c-0.1-0.3-0.2-0.7-0.2-1c0-0.6,0.3-1,0.9-1c0.2,0,0.5,0,0.7,0
		c0.6,0,1.1,0.1,1.7,0.2c-0.4,1.3-0.7,2.4-0.9,3.2c-0.1,0-0.2,0-0.3,0.1c-0.4,0.1-0.6,0.2-0.6,0.4c0,0.1,0.1,0.3,0.1,0.4
		c0.1,0.3,0.2,0.4,0.2,0.5c-0.3,0.9-0.8,1.9-1.3,2.7c-0.5,0-0.9,0-1.4,0.1c-0.2,0.1-0.3,0.2-0.3,0.4c0,0.1,0.1,0.3,0.2,0.7
		c0,0.1,0.1,0.2,0.2,0.2c0.1,0,0.4-0.2,0.8-0.5c0.7,0,1.3-0.1,1.9-0.1c1.3,0,2.6,0.1,3.9,0.4c0.3,0.1,0.4,0.1,0.5,0.1
		c0.1,0,0.2,0,0.3-0.1c0.1-0.1,0.2-0.2,0.3-0.2c0.1-0.1,0.2-0.2,0.1-0.3c-0.1-0.3-0.2-0.6-0.2-0.8c0-0.1-0.2-0.2-0.3-0.2
		c-0.1,0-0.1,0.1-0.2,0.2c0,0.1-0.1,0.2-0.3,0.2c0,0,0,0,0,0c-2-0.2-3.5-0.2-4.4-0.2c-0.2,0-0.4,0-0.6,0c0.3-0.1,0.5-0.3,0.7-0.6
		c0.2-0.3,0.4-0.6,0.5-1l0.6-1.8c0.7-0.1,1.5-0.1,2.2-0.1c0.2,0,0.3,0.1,0.4,0.2c0.1,0.1,0.3,0.1,0.8,0.1s0.6-0.2,0.6-0.3
		c0,0,0-0.1,0-0.1c0-0.2-0.1-0.3-0.1-0.5c-0.1-0.2-0.4-0.3-0.6-0.3c-1.4,0.1-2.4,0.1-3,0.2c0.2-0.7,0.4-1.6,0.8-2.9
		C86.6,118.2,87.7,118.4,88.7,118.7z"/>
	<path class="st0" d="M94.7,124.3c-0.2,0.2-0.4,0.4-0.6,0.6c0.7-3.5,1.7-6.3,3.2-8.5c0.4-0.6,0.8-0.9,1.1-0.9c0.2,0,0.4,0.1,0.6,0.2
		c0,0,0.1,0,0.2,0c0.1,0,0.2,0,0.2-0.1c0-0.1,0-0.1-0.1-0.1l-0.8-0.6c-0.2-0.1-0.4-0.2-0.6-0.2c-0.2,0-0.3,0.1-0.4,0.2
		c-0.4,0.3-0.9,1-1.4,1.9c-0.8,1.4-1.4,2.9-1.9,4.5c-0.1,0.2-0.2,0.4-0.3,0.6c-0.4,0.7-0.8,1.3-1.3,1.8c-0.6,0.7-1.2,1.3-1.9,1.9
		c-0.2,0.2-0.4,0.3-0.7,0.3c-0.1,0-0.2-0.1-0.2-0.3c0.1-0.8,0.5-1.6,1.2-2.5c0.5-0.7,1-1.2,1.7-1.7c0.3-0.2,0.6-0.2,0.9,0
		c0,0,0.1,0,0.1,0c0.1,0,0.2,0,0.2-0.1c0,0,0-0.1-0.1-0.1c-0.5-0.4-0.9-0.7-1.1-0.7c-0.3,0-0.5,0.1-0.7,0.3
		c-0.8,0.7-1.5,1.5-2.1,2.3c-0.5,0.7-0.9,1.6-1.1,2.4c0,0,0,0.1,0,0.1c0,0.2,0.2,0.5,0.5,0.7c0.1,0.1,0.3,0.2,0.4,0.2
		c0.2,0,0.4-0.1,0.5-0.2c0.5-0.4,1-0.8,1.4-1.3c0.6-0.6,1.2-1.3,1.8-2c-0.2,0.5-0.3,1.3-0.6,2.4c0,0.1,0,0.2,0,0.3
		c0,0.1,0.1,0.3,0.2,0.4c0.1,0.1,0.3,0.2,0.5,0.3c0.1,0,0.1,0.1,0.2,0.1c0.1,0,0.2-0.1,0.2-0.3c0.2-0.7,0.5-1.4,1-2
		c0.1-0.1,0.1-0.2,0-0.2C95,124.1,94.9,124.2,94.7,124.3z"/>
	<path class="st0" d="M102,120.9c-0.1-0.1-0.3-0.1-0.4-0.1c-0.1,0-0.2,0-0.3,0.1c-0.2,0.1-0.3,0.4-0.6,0.9c-0.4,0.6-0.8,1.3-1.3,1.9
		c-0.5,0.8-1.1,1.5-1.8,2.2c-0.2,0.2-0.3,0.3-0.4,0.3s-0.1-0.1-0.1-0.3c0-0.8,0.2-1.6,0.5-2.4c0.2-0.7,0.5-1.3,0.9-1.9l0.2-0.2
		c0,0,0-0.1-0.1-0.1c-0.2-0.1-0.4-0.2-0.6-0.2c-0.1,0-0.2,0.1-0.3,0.2c-0.2,0.3-0.4,0.5-0.5,0.9c-0.1,0.3-0.3,0.5-0.5,0.7
		c-0.1,0.1-0.1,0.1,0,0.2s0.1,0,0.2,0l0.4-0.3c-0.5,1.1-0.8,2.2-0.8,3.4c0,0.1,0,0.1,0,0.2c0,0.3,0.2,0.5,0.6,0.5
		c0.2,0.1,0.3,0.2,0.5,0.2c0.2,0,0.4-0.1,0.5-0.2c1-1,1.8-2.1,2.6-3.3c-0.3,0.9-0.6,1.8-0.8,2.7c-0.1,0.2,0,0.4,0.2,0.5
		c0.2,0.1,0.4,0.2,0.6,0.3c0.1,0,0.2-0.1,0.3-0.4c0.2-0.5,0.4-1.1,0.7-1.6c0,0,0-0.1,0-0.1c0-0.1,0-0.1-0.1-0.1
		c-0.1,0-0.1,0-0.1,0.1c-0.2,0.4-0.4,0.7-0.5,0.9c0.3-1.4,0.9-2.8,1.6-4.1c0,0,0-0.1,0.1-0.1c0,0,0.1,0,0.1-0.1
		C102.3,121.1,102.2,121,102,120.9z"/>
	<path class="st0" d="M105.7,122.8c0,0.1,0.1,0.2,0.5,0.4c0.1,0.1,0.3,0.1,0.4-0.1c0,0,0,0,0-0.1c0.3-0.6,0.4-1.2,0.3-1.8
		c0-0.3-0.2-0.4-0.6-0.4c-0.2,0-0.4,0-0.6,0.1c-0.3-0.2-0.5-0.3-0.8-0.3c-0.2,0-0.4,0.1-0.5,0.3c-1,1.2-1.6,2.6-1.9,4.2
		c0,0.4,0.1,0.8,0.4,1.1c0.3,0.3,0.8,0.4,1.2,0.4c0.2,0.1,0.4,0.1,0.6,0.1c0.2,0,0.4,0,0.6-0.2c0.5-0.5,0.8-1,1.1-1.6
		c0,0,0-0.1,0-0.1c0-0.1,0-0.1-0.1-0.1c-0.1,0-0.2,0.1-0.2,0.1c-0.9,1-1.5,1.5-2,1.5c-0.5,0-0.8-0.3-0.8-1.1c0-0.2,0-0.5,0.1-0.7
		c0.1-0.5,0.3-0.9,0.5-1.3c0.2-0.5,0.5-1,0.9-1.5c0.3-0.3,0.5-0.5,0.7-0.5c0,0,0.1,0,0.1,0c0,0,0.1,0,0.1,0c0.2,0,0.4,0.1,0.4,0.3
		c0,0.4-0.1,0.7-0.2,1.1C105.7,122.7,105.7,122.7,105.7,122.8z"/>
	<path class="st0" d="M112.3,120.9c-0.1,0-0.2,0.1-0.2,0.3c0,0.1-0.1,0.3-0.3,0.6c-0.4,0.7-0.8,1.3-1.4,1.8
		c-0.6,0.7-1.2,1.3-1.9,1.9c-0.2,0.2-0.4,0.3-0.7,0.3c-0.1,0-0.2-0.1-0.2-0.2c0,0,0-0.1,0-0.1c0.1-0.8,0.6-1.6,1.3-2.5
		c0.5-0.7,1-1.2,1.7-1.7c0.3-0.2,0.6-0.2,0.9,0c0,0,0.1,0,0.1,0c0.1,0,0.2,0,0.2-0.1c0,0,0-0.1-0.1-0.1c-0.5-0.4-0.9-0.7-1.1-0.7
		c-0.3,0-0.5,0.1-0.7,0.3c-0.8,0.7-1.5,1.5-2.1,2.3c-0.5,0.7-0.9,1.6-1,2.4c0,0.1,0,0.1,0,0.2c0,0.3,0.2,0.5,0.4,0.6
		c0.1,0.1,0.3,0.2,0.4,0.2c0.2,0,0.4-0.1,0.5-0.2c0.5-0.4,1.1-0.8,1.5-1.3c0.7-0.7,1.3-1.4,1.9-2.2c-0.4,1-0.7,2-0.8,3
		c0,0.1,0,0.2,0,0.3c0,0.1,0.1,0.1,0.2,0.2c0.2,0.1,0.3,0.2,0.5,0.2c0.1,0,0.2-0.1,0.2-0.3c0.2-0.7,0.5-1.4,1-2c0,0,0.1-0.1,0.1-0.2
		c0-0.1,0-0.1-0.1-0.1c-0.1,0-0.2,0.1-0.2,0.1c-0.1,0.1-0.2,0.2-0.2,0.2c-0.1,0.1-0.2,0.2-0.3,0.3c0.3-1,0.6-2,1-3
		c0-0.1,0.1-0.2,0.1-0.3c0-0.1-0.1-0.1-0.2-0.2C112.7,121.1,112.5,121,112.3,120.9z"/>
	<path class="st0" d="M116.4,125c-0.7,0.6-1.2,0.9-1.3,0.9c-0.1,0-0.1-0.1-0.1-0.2c0,0,0-0.1,0-0.2c0.2-1.4,0.6-2.9,1.2-4.2
		c1.1-0.1,1.7-0.1,1.8-0.1c0.1,0,0.2-0.1,0.2-0.2c0-0.2-0.1-0.2-0.3-0.2c-0.4,0-0.8,0.1-1.3,0c-0.1,0-0.2,0-0.2-0.1c0,0,0-0.1,0-0.2
		c0.5-1.2,0.8-1.9,1.1-2.3c0.3-0.4,0.5-0.6,0.7-0.6h0.1c0,0,0.1,0,0.1,0c0.1,0,0.2,0,0.2-0.1s-0.1-0.2-0.2-0.2
		c-0.3-0.2-0.6-0.3-0.9-0.3c-0.3,0-0.5,0.2-0.6,0.4c-0.3,0.5-0.8,1.5-1.3,3c-0.2,0.1-0.3,0.2-0.5,0.2c-0.3,0.1-0.5,0.1-0.6,0.2
		c-0.1,0-0.2,0.1-0.2,0.2c0,0.1,0.1,0.2,0.1,0.2c0,0,0,0,0,0l0.8,0.1c-0.5,1.5-0.9,3-1.2,4.5c0,0,0,0.1,0,0.1c0,0.2,0.2,0.4,0.5,0.4
		c0.2,0.1,0.3,0.2,0.5,0.2c0.2,0,0.3-0.1,0.4-0.2c0.5-0.4,0.9-0.8,1.3-1.3c0.1-0.1,0.1-0.1,0.1-0.2c0-0.1-0.1-0.1-0.1-0.1
		C116.5,124.9,116.5,124.9,116.4,125z"/>
	<path class="st0" d="M119.4,120.9c-0.1-0.1-0.2-0.1-0.4-0.2c-0.1,0-0.2,0.1-0.2,0.1c-0.3,0.3-0.6,0.6-0.8,0.9c0,0-0.1,0.1-0.1,0.1
		c0,0.1,0.1,0.1,0.3,0l0.5-0.4c0.1-0.1,0.2-0.1,0.3-0.2c0.1,0,0.1,0.1,0.1,0.3c-0.1,0.8-0.3,1.5-0.6,2.3c-0.2,0.8-0.6,1.5-1,2.2
		c0,0.1-0.1,0.1-0.1,0.2c0,0,0.1,0.1,0.2,0.2c0.2,0.1,0.3,0.1,0.5,0.2c0.1,0,0.2-0.1,0.3-0.2c0.2-0.4,0.4-0.8,0.7-1.2
		c0.4-0.6,0.6-0.9,0.7-1c0.1-0.1,0.1-0.2,0-0.2c0,0-0.1,0-0.1,0.1c-0.2,0.2-0.4,0.5-0.6,0.7c0.4-1,0.7-2.1,1-3.2c0-0.1,0-0.2,0-0.3
		c0-0.1-0.1-0.3-0.2-0.4C119.6,120.9,119.5,120.9,119.4,120.9z"/>
	<path class="st0" d="M121.2,118.7c0-0.1-0.1-0.2-0.1-0.2c-0.2-0.1-0.4-0.2-0.6-0.3c-0.1,0-0.1,0.1-0.3,0.2c-0.3,0.3-0.6,0.6-1,0.8
		c-0.1,0-0.1,0-0.1,0c0,0,0,0.1,0,0.1c0,0,0.1,0.1,0.1,0.1c0.1,0.1,0.3,0.1,0.4,0.2c0.3,0,0.6,0,0.9-0.2
		C121,119.1,121.2,118.8,121.2,118.7z"/>
	<path class="st0" d="M125,120.7c-0.1,0-0.3,0-0.4,0.1c-0.3,0.1-0.6,0.2-0.7,0.3c-0.4-0.3-0.7-0.5-0.9-0.5c-0.2,0-0.4,0.1-0.5,0.3
		c-0.6,0.6-1,1.3-1.3,2.1c-0.3,0.7-0.5,1.4-0.6,2.1c0,0.4,0.2,0.8,0.5,1.1c0.4,0.3,0.8,0.4,1.2,0.4c0.2,0.1,0.4,0.1,0.6,0.1
		c0.4,0,0.8-0.2,1.1-0.5c0.7-0.7,1.2-1.6,1.5-2.5c0.2-0.5,0.3-1.1,0.3-1.7c0-0.3-0.1-0.5-0.2-0.7C125.5,120.9,125.2,120.7,125,120.7
		z M125,122.2c-0.1,0.8-0.3,1.6-0.7,2.3c-0.4,0.8-0.8,1.3-1.3,1.6c-0.2,0.1-0.4,0.2-0.7,0.2c-0.5,0-0.8-0.3-0.8-1.1
		c0-0.2,0-0.5,0.1-0.7c0.1-0.5,0.2-0.9,0.4-1.3c0.2-0.5,0.5-1,0.9-1.5c0,0.1,0.1,0.1,0.1,0.1c0.1,0,0.2,0,0.2-0.1l1.2-0.4
		c0.1,0,0.1,0,0.2,0c0.1,0,0.2,0.1,0.2,0.3C125.1,121.6,125.1,121.8,125,122.2L125,122.2z"/>
	<path class="st0" d="M132.4,123.8c-0.2,0.3-0.4,0.5-0.6,0.7c0.2-0.5,0.3-0.9,0.4-1.4c0.1-0.5,0.2-1.1,0.3-1.6
		c0-0.3-0.2-0.5-0.7-0.7c-0.1-0.1-0.2-0.1-0.3-0.2c-0.1,0-0.2,0-0.4,0.1c-0.3,0.1-0.8,0.6-1.5,1.3c-0.6,0.6-1.1,1.3-1.6,2
		c0.5-1.3,0.8-2.3,0.9-2.8c0-0.2-0.2-0.4-0.6-0.5c-0.1-0.1-0.2-0.2-0.3-0.2c-0.1,0-0.2,0-0.2,0.1c-0.4,0.4-0.7,0.7-0.9,1
		c0,0-0.1,0.1-0.1,0.1c0,0.1,0,0.1,0.1,0.1c0.1,0,0.1,0,0.2-0.1c0.3-0.2,0.5-0.4,0.6-0.5s0.2-0.2,0.2-0.2s0,0.1,0,0.3
		c-0.1,0.8-0.3,1.6-0.6,2.3c-0.2,0.8-0.6,1.5-0.9,2.3c0,0.1-0.1,0.1-0.1,0.2c0,0,0.1,0.1,0.2,0.1c0.2,0.1,0.4,0.2,0.6,0.2
		c0.2,0,0.3-0.1,0.4-0.4c0.9-1.8,2-3.3,3.5-4.7c0.1-0.1,0.2-0.2,0.3-0.2c0.1,0,0.2,0.1,0.2,0.3c0,0.8-0.1,1.5-0.4,2.2
		c-0.2,0.8-0.5,1.6-0.9,2.3c0,0.1-0.1,0.1-0.1,0.2c0,0.1,0.1,0.2,0.3,0.2c0.1,0.1,0.3,0.1,0.4,0.1c0.1,0,0.3-0.1,0.3-0.2
		c0.1-0.2,0.2-0.4,0.3-0.6c0.5-0.8,0.9-1.4,1.3-1.9c0,0,0-0.1,0-0.1c0-0.1,0-0.1-0.1-0.1C132.5,123.7,132.4,123.7,132.4,123.8z"/>
	<path class="st0" d="M147.4,117.8c0.2,0,0.3-0.1,0.3-0.3c0,0,0-0.1,0-0.1c0-0.2-0.1-0.4-0.2-0.6c-0.1-0.2-0.3-0.3-0.5-0.2
		c-0.4,0-0.7,0.1-0.8,0.2c-0.1,0.1-0.2,0.2-0.4,0.2c-0.7,0.1-1.2,0.1-1.3,0.1c-0.2-0.2-0.4-0.3-0.6-0.4c-0.1,0-0.2,0.2-0.4,0.5
		c-1.5,0.1-3,0.4-4.5,0.7c-1.1,0.3-1.7,0.7-1.6,1.3c0,0.3,0.1,0.6,0.2,0.9c0.2,0.4,0.5,0.9,0.8,1.2c0.1,0.1,0.1,0.1,0.2,0.1
		c0.1,0,0.2,0,0.2-0.1c0,0,0,0,0,0c0-0.1,0-0.1-0.1-0.2c-0.4-0.6-0.5-1-0.5-1.3c0-0.3,0.2-0.6,0.5-0.8c0.3-0.2,0.9-0.4,1.8-0.6
		c0.8-0.2,1.6-0.3,2.5-0.3c-0.1,0.2-0.4,1-1,2.6c-0.5,1.4-0.9,2.4-1,2.9c-0.1,0-0.1,0-0.2,0c-0.1,0-0.1,0-0.2,0
		c-0.1,0-0.2,0.1-0.3,0.3c-0.3,0.6-0.4,1.2-0.4,1.9c0,0.4,0,0.5,0,0.4c0,0.1,0.1,0.2,0.2,0.2c0.2,0.1,0.4,0.1,0.7,0.2
		c0.2,0,0.3-0.2,0.4-0.5c0.3-1.1,0.7-2.5,1.3-4.1c0.4-1.3,0.9-2.6,1.6-3.9c1-0.1,2-0.2,2.9-0.3C147.2,117.8,147.4,117.8,147.4,117.8
		z"/>
	<path class="st0" d="M150.5,122.9c0.2-0.6,0.3-1.2,0.3-1.8c0-0.1,0-0.3-0.1-0.3c-0.1-0.1-0.3-0.1-0.4-0.1c-0.1-0.1-0.3-0.2-0.4-0.2
		c-0.1,0-0.2,0.1-0.4,0.3c-1,1.2-1.8,2.4-2.5,3.8c0.2-0.6,0.4-1.3,0.6-1.9c0.2-0.5,0.4-1,0.7-1.5c0.1-0.1,0.1-0.2-0.1-0.3
		c-0.2-0.1-0.4-0.2-0.6-0.2c-0.1,0-0.3,0.1-0.4,0.3c-0.4,0.6-0.8,1-1.1,1.3c0,0-0.1,0.1-0.1,0.1c0,0.1,0,0.1,0.1,0.1
		c0.1,0,0.1,0,0.2-0.1c0.2-0.3,0.5-0.5,0.8-0.8c-0.6,1.3-1,2.7-1.4,4.1c-0.1,0.2,0,0.4,0.2,0.5c0,0,0,0,0,0c0.2,0.1,0.4,0.2,0.6,0.2
		c0.1,0,0.3-0.3,0.5-0.8c0.5-1.6,1.4-3,2.5-4.3c0.1-0.2,0.2-0.3,0.3-0.3c0.1,0,0.1,0,0.1,0.1c0,0.4-0.1,0.7-0.2,1
		c-0.1,0.1,0,0.3,0.1,0.4c0.1,0.1,0.3,0.2,0.5,0.3C150.4,123.1,150.5,123,150.5,122.9z"/>
	<path class="st0" d="M156.4,121.2c-0.2-0.1-0.4-0.2-0.6-0.3c-0.1,0-0.2,0.1-0.2,0.3c0,0.1-0.1,0.3-0.3,0.6
		c-0.4,0.7-0.8,1.3-1.3,1.8c-0.6,0.7-1.2,1.3-1.9,1.9c-0.2,0.2-0.4,0.3-0.6,0.3c-0.1,0-0.2-0.1-0.2-0.2c0,0,0-0.1,0-0.1
		c0.1-0.8,0.6-1.6,1.3-2.5c0.5-0.7,1-1.2,1.7-1.7c0.3-0.2,0.6-0.2,0.9,0c0,0,0.1,0,0.1,0c0.1,0,0.2,0,0.2-0.1c0,0,0-0.1-0.1-0.1
		c-0.5-0.4-0.9-0.7-1.1-0.7c-0.3,0-0.5,0.1-0.7,0.3c-0.8,0.7-1.5,1.5-2.1,2.3c-0.5,0.7-0.9,1.6-1,2.4c0,0.1,0,0.1,0,0.2
		c0,0.3,0.2,0.5,0.4,0.6c0.1,0.1,0.3,0.2,0.4,0.2c0.2,0,0.4-0.1,0.5-0.2c0.5-0.4,1.1-0.8,1.5-1.3c0.7-0.7,1.3-1.4,1.9-2.2
		c-0.4,1-0.7,2-0.9,3c0,0.1,0,0.2,0,0.3c0,0.1,0.1,0.1,0.2,0.2c0.2,0.1,0.3,0.2,0.5,0.2c0.1,0,0.2-0.1,0.2-0.3c0.2-0.7,0.5-1.4,1-2
		c0,0,0.1-0.1,0.1-0.2c0-0.1,0-0.1-0.1-0.1c-0.1,0-0.2,0.1-0.2,0.1c-0.1,0.1-0.2,0.2-0.2,0.2c-0.1,0.1-0.2,0.2-0.3,0.3
		c0.3-1,0.6-2,1-3c0-0.1,0.1-0.2,0.1-0.3C156.6,121.4,156.5,121.3,156.4,121.2z"/>
	<path class="st0" d="M163.4,123.8c0-0.1,0-0.1-0.1-0.1c-0.1,0-0.1,0-0.1,0.1c-0.2,0.3-0.4,0.5-0.6,0.7c0.2-0.5,0.3-0.9,0.4-1.4
		c0.1-0.5,0.2-1.1,0.3-1.6c0-0.3-0.2-0.5-0.7-0.7c-0.1-0.1-0.2-0.1-0.3-0.2c-0.1,0-0.2,0-0.4,0.1c-0.3,0.1-0.8,0.6-1.5,1.3
		c-0.6,0.6-1.1,1.3-1.6,2c0.5-1.3,0.8-2.3,0.9-2.8c0-0.2-0.2-0.4-0.6-0.5c-0.1-0.1-0.2-0.2-0.3-0.2c-0.1,0-0.2,0-0.3,0.1
		c-0.4,0.4-0.7,0.7-0.9,1c0,0-0.1,0.1-0.1,0.1c0,0.1,0,0.1,0.1,0.1c0.1,0,0.1,0,0.2-0.1c0.3-0.2,0.5-0.4,0.6-0.5
		c0.1-0.1,0.2-0.2,0.2-0.2c0,0,0,0.1,0,0.3c-0.1,0.8-0.3,1.6-0.6,2.3c-0.2,0.8-0.6,1.5-0.9,2.3c0,0.1-0.1,0.1-0.1,0.2
		c0,0,0.1,0.1,0.2,0.1c0.2,0.1,0.4,0.2,0.6,0.2c0.2,0,0.3-0.1,0.4-0.4c0.9-1.8,2-3.3,3.5-4.7c0.1-0.1,0.2-0.2,0.3-0.2
		c0.1,0,0.2,0.1,0.2,0.3c0,0.5-0.1,1.3-0.4,2.2c-0.2,0.8-0.5,1.6-0.9,2.3c0,0.1-0.1,0.1-0.1,0.2c0,0.1,0.1,0.2,0.3,0.2
		c0.1,0.1,0.3,0.1,0.4,0.1c0.1,0,0.3-0.1,0.3-0.2c0.1-0.2,0.2-0.4,0.3-0.6C162.7,125,163.1,124.3,163.4,123.8
		C163.4,123.9,163.4,123.9,163.4,123.8z"/>
	<path class="st0" d="M167.7,122.1c0.1-0.1,0.1-0.2,0.2-0.3c0.1-0.3,0.2-0.7,0.2-1c0-0.2-0.1-0.3-0.2-0.3c-0.2,0-0.3,0.1-0.5,0.2
		c-0.1,0-0.2,0.2-0.2,0.3c0,0.3,0,0.7-0.1,1c0,0.1,0,0.1,0,0.2c0,0.1,0,0.1,0.1,0.1c0.1,0,0.3-0.1,0.4-0.1
		C167.5,122.2,167.6,122.1,167.7,122.1z"/>
	<path class="st0" d="M166.7,120.7c-1.2,0.2-1.8,0.6-1.9,1.2c0,0.2,0.1,0.7,0.5,1.5s0.5,1.3,0.5,1.6c0,0.1,0,0.3-0.1,0.4
		c-0.1,0.2-0.3,0.4-0.6,0.4c-0.7,0.1-1.3,0.2-1.7,0.2c-0.3,0-0.4,0.1-0.5,0.2c0,0.1,0.1,0.2,0.2,0.2l1.2,0.2c0.2,0,0.3,0,0.5,0
		c0.2,0,0.4-0.1,0.5-0.2c0.1-0.1,0.2-0.3,0.3-0.4c0.7-0.2,1.1-0.6,1.1-1.2c0-0.4-0.1-0.8-0.3-1.2c-0.3-0.7-0.4-1.2-0.5-1.4
		c0-0.2-0.1-0.3-0.1-0.5c0-0.3,0.3-0.6,0.9-0.8c0.1,0,0.1-0.1,0.1-0.1C166.9,120.7,166.8,120.7,166.7,120.7z"/>
	<path class="st0" d="M172.8,121c0-0.1-0.1-0.1-0.2-0.1c-0.2,0-0.8-0.1-1.6-0.2c1.2-2.9,2-4.4,2.5-4.7c0.1-0.1,0.3-0.1,0.5-0.1
		c0.3,0,0.6,0.1,0.8,0.2c0.1,0,0.1,0,0.2,0c0.1,0,0.2,0,0.2-0.1s0-0.1-0.1-0.2c-0.8-0.5-1.4-0.8-1.8-0.8c-0.4,0-0.8,0.3-1.2,1
		c-0.5,0.8-1.2,2.3-2,4.5c0,0.1-0.2,0.2-0.4,0.2c-0.2,0-0.5,0.1-0.7,0.2c-0.2,0-0.3,0.1-0.3,0.2c0,0.1,0.1,0.1,0.1,0.2
		c0,0.1,0.1,0.1,0.2,0.1c0.1,0,0.3,0,0.8,0c-1,2.5-1.8,5.2-2.4,7.8c0,0.3,0.1,0.5,0.5,0.7c0.2,0.1,0.4,0.2,0.6,0.2
		c0.1,0,0.1,0,0.1-0.1c0-0.1,0-0.1,0-0.2c0-0.1,0-0.1,0-0.2c0.1-1,0.2-1.9,0.5-2.8c0.5-1.8,1-3.6,1.7-5.3c0.6,0,1.3-0.1,1.9-0.2
		C172.7,121.1,172.8,121.1,172.8,121z"/>
	<path class="st0" d="M176.5,120.7c-0.1,0-0.3,0-0.4,0.1c-0.3,0.1-0.6,0.2-0.7,0.3c-0.4-0.3-0.7-0.5-0.9-0.5c-0.2,0-0.4,0.1-0.5,0.3
		c-0.6,0.6-1,1.3-1.3,2.1c-0.3,0.7-0.5,1.4-0.6,2.1c0,0.4,0.2,0.8,0.5,1.1c0.4,0.3,0.8,0.4,1.2,0.4c0.2,0.1,0.4,0.1,0.6,0.1
		c0.4,0,0.8-0.2,1.1-0.5c0.7-0.7,1.2-1.6,1.5-2.5c0.2-0.5,0.3-1.1,0.3-1.7c0-0.3-0.1-0.5-0.2-0.7
		C176.9,120.9,176.7,120.7,176.5,120.7z M176.5,122.2c-0.1,0.8-0.3,1.6-0.7,2.3c-0.4,0.8-0.8,1.3-1.3,1.6c-0.2,0.1-0.4,0.2-0.7,0.2
		c-0.5,0-0.8-0.3-0.8-1.1c0-0.2,0-0.5,0.1-0.7c0.1-0.5,0.2-0.9,0.4-1.3c0.2-0.5,0.5-1,0.9-1.5c0,0.1,0.1,0.1,0.1,0.1
		c0.1,0,0.2,0,0.2-0.1l1.2-0.4c0.1,0,0.1,0,0.2,0c0.1,0,0.2,0.1,0.2,0.3C176.6,121.6,176.5,121.8,176.5,122.2L176.5,122.2z"/>
	<path class="st0" d="M182.9,120.8c-0.1-0.1-0.3-0.1-0.4-0.1c-0.1-0.1-0.2-0.2-0.4-0.2c-0.1,0-0.2,0.1-0.4,0.3
		c-1,1.2-1.8,2.4-2.5,3.8c0.2-0.6,0.4-1.3,0.6-1.9c0.2-0.5,0.4-1,0.7-1.5c0.1-0.1,0.1-0.2-0.1-0.3c-0.2-0.1-0.4-0.2-0.6-0.2
		c-0.1,0-0.3,0.1-0.4,0.3c-0.4,0.6-0.8,1-1.1,1.3c0,0-0.1,0.1-0.1,0.1c0,0.1,0,0.1,0.1,0.1c0.1,0,0.1,0,0.2-0.1
		c0.2-0.3,0.5-0.5,0.8-0.8c-0.6,1.3-1,2.7-1.4,4.1c-0.1,0.2,0,0.4,0.2,0.5c0,0,0,0,0,0c0.2,0.1,0.4,0.2,0.6,0.2
		c0.1,0,0.3-0.3,0.5-0.8c0.5-1.6,1.4-3,2.5-4.3c0.1-0.2,0.2-0.3,0.3-0.3c0.1,0,0.1,0,0.1,0.1c0,0.4-0.1,0.7-0.2,1
		c-0.1,0.1,0,0.3,0.1,0.4c0.1,0.1,0.3,0.2,0.5,0.3c0.1,0,0.2-0.1,0.2-0.3c0.2-0.6,0.3-1.2,0.3-1.8C183.1,121,183,120.9,182.9,120.8z
		"/>
	<path class="st0" d="M192.6,124c-0.2,0.3-0.4,0.5-0.6,0.7c0.5-1,0.8-2.2,0.8-3.3c0-0.3-0.2-0.6-0.5-0.7c0,0-0.1,0-0.1,0
		c-0.2-0.2-0.4-0.3-0.6-0.3c-0.1,0-0.3,0.1-0.4,0.1c-1.1,1-2,2-2.9,3.2c0.3-0.8,0.4-1.7,0.4-2.6c0-0.1,0-0.3-0.1-0.4
		c-0.1-0.1-0.3-0.2-0.4-0.2c-0.2-0.1-0.3-0.2-0.5-0.2c-0.1,0-0.2,0.1-0.3,0.1c-0.8,0.6-1.7,1.7-2.6,3.2c0.3-0.8,0.5-1.7,0.6-2.5
		c0,0,0-0.1,0-0.1c0-0.1-0.1-0.2-0.2-0.3l-0.4-0.1c-0.2-0.2-0.3-0.2-0.3-0.2s-0.2,0.1-0.3,0.2c-0.3,0.3-0.6,0.7-0.9,1
		c-0.1,0.1-0.1,0.1-0.1,0.2c0,0.1,0,0.1,0.1,0.1c0.1,0,0.1,0,0.2-0.1l0.4-0.4c0.2-0.2,0.3-0.3,0.4-0.4c0,0.5-0.1,1.4-0.4,2.5
		c-0.2,0.7-0.4,1.4-0.7,2.1c-0.1,0.1-0.2,0.2-0.2,0.2s0,0.1,0.1,0.1c0.2,0.2,0.4,0.3,0.7,0.3c0.1,0,0.2-0.1,0.3-0.3
		c0.4-1,0.9-1.9,1.5-2.8c0.7-1,1.3-1.8,1.9-2.2c0.1-0.1,0.2-0.1,0.3-0.1c0.1,0,0.1,0.1,0.1,0.2c0,1.6-0.4,3.1-1.1,4.5
		c0,0.1-0.1,0.2-0.1,0.3c0,0.1,0,0.1,0.1,0.2c0.2,0.1,0.3,0.2,0.5,0.2c0.1,0,0.2,0,0.2,0c0,0,0.1-0.1,0.1-0.2
		c0.5-1.1,1.1-2.2,1.9-3.2c0.5-0.7,1.1-1.3,1.8-1.9c0.1-0.1,0.2-0.1,0.3-0.1c0.1,0,0.2,0.1,0.2,0.2c0,0.7-0.2,1.5-0.4,2.1
		c-0.3,0.9-0.6,1.8-1,2.6c0,0.1-0.1,0.1-0.1,0.2c0,0.1,0.2,0.2,0.6,0.3c0.1,0,0.2,0.1,0.3,0c0,0,0.1-0.1,0.1-0.2
		c0.7-1.2,1.2-2,1.6-2.4c0,0,0.1-0.1,0.1-0.2c0-0.1,0-0.1-0.1-0.1c0,0,0,0,0,0C192.8,123.9,192.7,123.9,192.6,124z"/>
	<path class="st0" d="M195.5,120.9c-0.1-0.1-0.2-0.1-0.4-0.2c-0.1,0-0.2,0.1-0.2,0.1c-0.3,0.3-0.6,0.6-0.8,0.9c0,0-0.1,0.1-0.1,0.1
		c0,0.1,0.1,0.1,0.3,0l0.5-0.4c0.1-0.1,0.2-0.1,0.3-0.2c0.1,0,0.1,0.1,0.1,0.3c-0.1,0.8-0.3,1.5-0.6,2.3c-0.2,0.8-0.6,1.5-1,2.2
		c0,0.1-0.1,0.1-0.1,0.2c0,0,0.1,0.1,0.2,0.2c0.2,0.1,0.3,0.1,0.5,0.2c0.1,0,0.2-0.1,0.3-0.2c0.2-0.4,0.4-0.8,0.7-1.2
		c0.4-0.6,0.6-0.9,0.7-1c0.1-0.1,0.1-0.2,0-0.2c0,0-0.1,0-0.1,0.1c-0.2,0.2-0.4,0.5-0.6,0.7c0.4-1,0.7-2.1,1-3.2c0-0.1,0-0.2,0-0.3
		c0-0.1-0.1-0.3-0.2-0.4C195.8,120.9,195.6,120.9,195.5,120.9z"/>
	<path class="st0" d="M197.3,118.7c0-0.1-0.1-0.2-0.1-0.2c-0.2-0.1-0.4-0.2-0.6-0.3c-0.1,0-0.1,0.1-0.3,0.2c-0.3,0.3-0.6,0.6-1,0.8
		c-0.1,0-0.1,0-0.1,0c0,0,0,0.1,0,0.1c0,0,0.1,0.1,0.1,0.1c0.1,0.1,0.3,0.1,0.4,0.2c0.3,0,0.6,0,0.9-0.2
		C197.1,119.1,197.3,118.8,197.3,118.7z"/>
	<path class="st0" d="M201.4,121.4c0.1-0.1,0.2-0.2,0.3-0.2c0.1,0,0.2,0.1,0.2,0.3c0,0.5-0.1,1.3-0.4,2.2c-0.2,0.8-0.5,1.6-0.9,2.3
		c0,0.1-0.1,0.1-0.1,0.2c0,0.1,0.1,0.2,0.3,0.2c0.1,0.1,0.3,0.1,0.4,0.1c0.1,0,0.2-0.1,0.3-0.2c0.1-0.2,0.2-0.4,0.3-0.6
		c0.5-0.8,0.9-1.4,1.3-1.9c0,0,0-0.1,0-0.1c0-0.1,0-0.1-0.1-0.1c-0.1,0-0.1,0-0.1,0.1c-0.2,0.3-0.4,0.5-0.6,0.7
		c0.2-0.5,0.3-0.9,0.4-1.4c0.1-0.5,0.2-1.1,0.3-1.6c0-0.3-0.2-0.5-0.7-0.7c-0.1-0.1-0.2-0.1-0.3-0.2c-0.1,0-0.2,0-0.4,0.1
		c-0.3,0.1-0.8,0.6-1.5,1.3c-0.6,0.6-1.1,1.3-1.6,2c0.5-1.4,0.8-2.3,0.9-2.8c0-0.2-0.2-0.4-0.6-0.5c-0.1-0.1-0.2-0.2-0.3-0.2
		c-0.1,0-0.2,0-0.2,0.1c-0.4,0.4-0.7,0.7-0.9,1c0,0-0.1,0.1-0.1,0.1c0,0.1,0,0.1,0.1,0.1c0.1,0,0.1,0,0.2-0.1
		c0.3-0.2,0.5-0.4,0.6-0.5c0.1-0.1,0.1-0.1,0.2-0.2c0,0,0,0.1,0,0.3c-0.1,0.8-0.3,1.6-0.6,2.3c-0.2,0.8-0.6,1.5-0.9,2.3
		c0,0.1-0.1,0.1-0.1,0.2c0,0,0.1,0.1,0.2,0.1c0.2,0.1,0.4,0.2,0.6,0.2c0.2,0,0.3-0.1,0.4-0.4C198.7,124.3,199.9,122.7,201.4,121.4z"
		/>
	<path class="st0" d="M208.7,120.5c-0.1,0-0.1,0.1-0.1,0.3c0,0.2-0.1,0.5-0.1,0.7c-0.3,0.8-0.7,1.6-1.2,2.3
		c-0.5,0.8-1.2,1.5-1.9,2.1c-0.1,0.1-0.3,0.2-0.5,0.2c-0.2,0-0.3-0.2-0.3-0.5c0-0.1,0-0.3,0-0.4c0.2-0.7,0.4-1.4,0.9-2
		c0.3-0.6,0.7-1.1,1.2-1.5c0.2-0.1,0.4-0.2,0.6-0.2c0.2,0,0.3,0,0.5,0.1c0.1,0,0.2,0.1,0.3,0.1c0.1,0,0.2,0,0.2-0.1
		c0-0.1-0.1-0.1-0.1-0.2l-0.6-0.5c-0.2-0.1-0.4-0.2-0.6-0.2c-0.3,0-0.6,0.2-0.8,0.4c-0.6,0.6-1.2,1.3-1.6,2
		c-0.5,0.9-0.8,1.7-0.8,2.3c0,0.5,0.3,0.9,0.7,1.1c0.2,0.2,0.5,0.3,0.7,0.3c0.3,0,0.5-0.2,0.7-0.4c0.7-0.6,1.4-1.6,2.3-2.9
		c-1.5,5.7-3.3,8.6-5.5,8.6c-0.7,0-1.5-0.3-2.3-1c-0.1,0-0.1-0.1-0.2-0.1c-0.1,0-0.2,0.1-0.2,0.2c0,0.1,0.1,0.2,0.2,0.3
		c1.1,0.9,2.1,1.4,3.1,1.4c2.6,0,4.8-3.8,6.4-11.3c0.1-0.3,0-0.5-0.2-0.6C209.1,120.7,208.9,120.6,208.7,120.5z"/>
	<path class="st0" d="M219.6,117.6c-0.6-0.4-1-0.5-1.2-0.5c-0.1,0-0.1,0-0.2,0.1c-0.6-0.2-1-0.2-1.2-0.1c-0.5,0.2-1,0.6-1.4,1
		c-0.5,0.5-0.9,1.1-1.2,1.7c-0.2,0.3-0.3,0.6-0.3,0.9c0,0.2,0.1,0.5,0.3,0.6c0.3,0.2,0.6,0.4,1,0.6c0.1,0,0.1,0,0.2,0
		c0.2,0,0.2,0,0.2-0.1c0-0.1,0-0.1-0.1-0.1l-0.4-0.3c-0.1-0.1-0.2-0.3-0.2-0.5c0-0.1,0-0.2,0.1-0.3c0.2-0.8,0.7-1.5,1.2-2
		c0.5-0.5,1-0.8,1.4-0.9c0.1,0,0.2,0,0.3,0c0.5,0,0.8,0.2,0.8,0.7c-0.1,1.4-0.5,3.1-1.3,4.9c-0.9,1.9-1.6,2.8-2.3,2.8
		c-0.4,0-0.8-0.1-1.2-0.3c0,0-0.1,0-0.1,0c-0.2,0-0.3,0.1-0.3,0.2c0,0.1,0,0.1,0.1,0.2c0.8,0.5,1.4,0.8,1.9,0.8c0.9,0,1.8-1,2.7-3
		c0.7-1.4,1.2-3,1.5-4.6C220,118.3,219.9,117.8,219.6,117.6z"/>
	<path class="st0" d="M225.8,123.8c-0.2,0.3-0.4,0.5-0.6,0.7c0.2-0.5,0.3-0.9,0.4-1.4c0.1-0.5,0.2-1.1,0.3-1.6
		c0-0.3-0.2-0.5-0.7-0.7c-0.1-0.1-0.2-0.1-0.3-0.2c-0.1,0-0.2,0-0.4,0.1c-0.3,0.1-0.8,0.6-1.5,1.3c-0.6,0.6-1.1,1.3-1.6,2
		c0.5-1.4,0.8-2.3,0.9-2.8c0-0.2-0.2-0.4-0.6-0.5c-0.1-0.1-0.2-0.2-0.3-0.2c-0.1,0-0.2,0-0.2,0.1c-0.4,0.4-0.7,0.7-0.9,1
		c0,0-0.1,0.1-0.1,0.1c0,0.1,0,0.1,0.1,0.1c0.1,0,0.1,0,0.2-0.1c0.3-0.2,0.5-0.4,0.6-0.5s0.2-0.2,0.2-0.2s0,0.1,0,0.3
		c-0.1,0.8-0.3,1.6-0.6,2.3c-0.2,0.8-0.6,1.5-0.9,2.3c0,0.1-0.1,0.1-0.1,0.2c0,0,0.1,0.1,0.2,0.1c0.2,0.1,0.4,0.2,0.6,0.2
		c0.2,0,0.3-0.1,0.4-0.4c0.9-1.8,2-3.3,3.5-4.7c0.1-0.1,0.2-0.1,0.3-0.2c0.1,0,0.2,0.1,0.2,0.3c0,0.8-0.1,1.5-0.4,2.2
		c-0.2,0.8-0.5,1.6-0.9,2.3c0,0.1-0.1,0.1-0.1,0.2c0,0.1,0.1,0.2,0.3,0.2c0.1,0.1,0.3,0.1,0.4,0.1c0.1,0,0.2-0.1,0.3-0.2
		c0.1-0.2,0.2-0.4,0.3-0.6c0.5-0.8,0.9-1.4,1.3-1.9c0,0,0-0.1,0-0.1c0-0.1,0-0.1-0.1-0.1C225.9,123.7,225.9,123.7,225.8,123.8z"/>
	<path class="st0" d="M232.2,124.3c-0.2,0.2-0.4,0.4-0.6,0.6c0.7-3.5,1.7-6.3,3.2-8.5c0.4-0.6,0.8-0.9,1.1-0.9
		c0.2,0,0.4,0.1,0.6,0.2c0,0,0.1,0,0.2,0c0.1,0,0.2,0,0.2-0.1c0-0.1,0-0.1-0.1-0.1l-0.8-0.6c-0.2-0.1-0.4-0.2-0.6-0.2
		c-0.2,0-0.3,0.1-0.4,0.2c-0.4,0.3-0.9,1-1.4,1.9c-0.8,1.4-1.4,2.9-1.9,4.5c-0.1,0.2-0.2,0.4-0.3,0.6c-0.4,0.7-0.8,1.3-1.3,1.8
		c-0.6,0.7-1.2,1.3-1.9,1.9c-0.2,0.2-0.4,0.3-0.7,0.3c-0.1,0-0.2-0.1-0.2-0.3c0.1-0.8,0.5-1.6,1.2-2.5c0.5-0.7,1-1.2,1.7-1.7
		c0.3-0.2,0.6-0.2,0.9,0c0,0,0.1,0,0.1,0c0.1,0,0.2,0,0.2-0.1c0,0,0-0.1-0.1-0.1c-0.5-0.4-0.9-0.7-1.1-0.7c-0.3,0-0.5,0.1-0.7,0.3
		c-0.8,0.7-1.5,1.5-2.1,2.3c-0.5,0.7-0.9,1.6-1.1,2.4c0,0,0,0.1,0,0.1c0,0.2,0.2,0.5,0.5,0.7c0.1,0.1,0.3,0.2,0.4,0.2
		c0.2,0,0.4-0.1,0.5-0.2c0.5-0.4,1-0.8,1.4-1.3c0.6-0.6,1.2-1.3,1.8-2c-0.2,0.5-0.3,1.3-0.6,2.4c0,0.1,0,0.2,0,0.3
		c0,0.1,0.1,0.3,0.2,0.4c0,0,0.2,0.1,0.5,0.3c0.1,0,0.1,0.1,0.2,0.1c0.1,0,0.2-0.1,0.2-0.3c0.2-0.7,0.5-1.4,1-2
		c0.1-0.1,0.1-0.2,0-0.2C232.5,124.1,232.4,124.2,232.2,124.3z"/>
	<path class="st0" d="M236.3,118.2c-0.1,0-0.1,0.1-0.3,0.2c-0.3,0.3-0.6,0.6-1,0.8c-0.1,0-0.1,0-0.1,0c0,0,0,0,0,0.1
		c0,0,0.1,0.1,0.1,0.1c0.1,0.1,0.3,0.1,0.4,0.2c0.3,0,0.6,0,0.9-0.2c0.5-0.3,0.7-0.5,0.7-0.6c0-0.1-0.1-0.2-0.1-0.2
		C236.7,118.4,236.5,118.3,236.3,118.2z"/>
	<path class="st0" d="M235.2,120.9c-0.1-0.1-0.2-0.1-0.4-0.2c-0.1,0-0.2,0-0.2,0.1c-0.3,0.3-0.6,0.6-0.8,0.9c0,0-0.1,0.1-0.1,0.1
		c0,0.1,0.1,0.1,0.3,0l0.5-0.4c0.1-0.1,0.2-0.1,0.3-0.2c0.1,0,0.1,0.1,0.1,0.3c-0.1,0.8-0.3,1.5-0.6,2.3c-0.2,0.8-0.6,1.5-1,2.2
		c0,0.1-0.1,0.1-0.1,0.2c0,0,0.1,0.1,0.2,0.2c0.2,0.1,0.3,0.1,0.5,0.2c0.1,0,0.2-0.1,0.3-0.2c0.2-0.4,0.4-0.8,0.7-1.2
		c0.4-0.6,0.6-0.9,0.7-1c0.1-0.1,0.1-0.2,0-0.2c0,0-0.1,0-0.1,0.1c-0.2,0.2-0.4,0.5-0.7,0.7c0.4-1,0.7-2.1,1-3.2c0-0.1,0-0.2,0-0.3
		c0-0.1-0.1-0.3-0.2-0.4C235.6,120.9,235.5,120.9,235.2,120.9z"/>
	<path class="st0" d="M242.3,121.4c0-0.1-0.1-0.1-0.2-0.2c-0.2-0.1-0.4-0.2-0.6-0.3c-0.1,0-0.2,0.1-0.2,0.3c0,0.1-0.1,0.3-0.3,0.6
		c-0.4,0.7-0.8,1.3-1.3,1.8c-0.6,0.7-1.2,1.3-1.9,1.9c-0.2,0.2-0.4,0.3-0.7,0.3c-0.1,0-0.2-0.1-0.2-0.2c0,0,0-0.1,0-0.1
		c0.1-0.8,0.6-1.6,1.3-2.5c0.5-0.7,1-1.2,1.7-1.7c0.3-0.2,0.6-0.2,0.9,0c0,0,0.1,0,0.1,0c0.1,0,0.2,0,0.2-0.1c0,0,0-0.1-0.1-0.1
		c-0.5-0.4-0.9-0.7-1.1-0.7c-0.3,0-0.5,0.1-0.7,0.3c-0.8,0.7-1.5,1.5-2.1,2.4c-0.5,0.7-0.9,1.6-1,2.4c0,0.1,0,0.1,0,0.2
		c0,0.3,0.2,0.5,0.4,0.6c0.1,0.1,0.3,0.2,0.4,0.2c0.2,0,0.4-0.1,0.5-0.2c0.6-0.4,1.1-0.8,1.5-1.3c0.7-0.7,1.3-1.4,1.9-2.2
		c-0.4,1-0.7,2-0.8,3c0,0.1,0,0.2,0,0.3c0.1,0.1,0.1,0.2,0.2,0.2c0.2,0.1,0.3,0.2,0.5,0.2c0.1,0,0.2-0.1,0.2-0.3
		c0.2-0.7,0.5-1.4,1-2c0,0,0.1-0.1,0.1-0.2c0-0.1,0-0.1-0.1-0.1c-0.1,0-0.2,0.1-0.2,0.1c-0.1,0.1-0.2,0.2-0.2,0.2
		c-0.1,0.1-0.2,0.2-0.3,0.3c0.3-1,0.6-2,1-3C242.3,121.6,242.3,121.5,242.3,121.4z"/>
	<ellipse class="st1" cx="47.8" cy="64.8" rx="40.4" ry="40.4"/>
	<path class="st2" d="M47.8,105.6C25.3,105.6,7,87.3,7,64.8S25.3,24,47.8,24s40.8,18.3,40.8,40.8S70.3,105.6,47.8,105.6z M47.8,24.8
		c-22.1,0-40.1,18-40.1,40s18,40,40.1,40s40.1-18,40.1-40S69.9,24.8,47.8,24.8L47.8,24.8z"/>
	<path class="st3" d="M47.8,33.6c17.3,0,31.2,14,31.2,31.3S65,96.1,47.7,96.1c-17.2,0-31.2-14-31.2-31.3
		C16.5,47.5,30.5,33.5,47.8,33.6z"/>
	<path class="st0" d="M47.8,34.4c16.8,0,30.4,13.6,30.4,30.4S64.5,95.2,47.7,95.2c-16.8,0-30.4-13.6-30.4-30.4
		C17.4,48,31,34.4,47.8,34.4z"/>
	<path class="st4" d="M26.4,43.2l-4.8,37.2C14.5,68.3,16.4,53,26.4,43.2z"/>
	<path class="st4" d="M23.1,82.5L35.4,37c3.9-1.7,8.1-2.6,12.4-2.6l0,0c2.3,0,4.7,0.3,6.9,0.8L25.6,85.6
		C24.7,84.7,23.9,83.6,23.1,82.5z"/>
	<path class="st4" d="M26.7,86.7l37.4-47.6c5.3,3.4,9.4,8.3,11.8,14L29.2,88.9C28.3,88.2,27.5,87.5,26.7,86.7z"/>
	<path class="st4" d="M30.5,89.8l47.7-27c0,0.7,0.1,1.3,0.1,2c0,6.3-1.9,12.4-5.6,17.5l-37.9,10C33.3,91.6,31.8,90.7,30.5,89.8z"/>
	<path class="st4" d="M38.7,93.8l24.9-3C56.1,95.3,47,96.4,38.7,93.8z"/>
	<path class="st2" d="M47.8,95.6c-17,0-30.8-13.8-30.8-30.8S30.8,34,47.8,34s30.8,13.8,30.8,30.8S64.8,95.6,47.8,95.6z M47.8,34.8
		c-16.6,0-30.1,13.5-30.1,30s13.5,30,30.1,30s30.1-13.5,30.1-30S64.4,34.8,47.8,34.8L47.8,34.8z"/>
	<path class="st0" d="M10.3,72l-0.1-0.5l4.3-0.6l-0.3-1.8l0.5-0.1l0.4,2.3L10.3,72z M9.6,66.1c0-0.7,0.2-1.3,0.7-1.8
		c1-1,2.6-1,3.6,0c1,1,1,2.6,0,3.5c-0.5,0.5-1.1,0.7-1.8,0.7c-0.4,0-0.9-0.1-1.3-0.3C10.1,67.8,9.6,67,9.6,66.1L9.6,66.1z
		 M10.1,66.1c0,0.4,0.1,0.7,0.3,1c0.2,0.3,0.4,0.6,0.7,0.7c0.3,0.2,0.7,0.3,1,0.3c1.1,0,2-0.9,2-2c0,0,0,0,0,0c0-0.4-0.1-0.7-0.3-1
		c-0.2-0.3-0.4-0.6-0.7-0.7c-0.3-0.2-0.7-0.3-1-0.3c-0.4,0-0.7,0.1-1,0.3C10.4,64.7,10,65.3,10.1,66.1L10.1,66.1z M9.7,62.2l0.1-0.5
		l3.9-1l-3.4-2.1l0.1-0.5l4.4,2.8v0.1L9.7,62.2z M10.6,56.7l0.7-2.6l0.5,0.1l-0.6,2.2l1.4,0.4l0.6-2.1l0.5,0.1l-0.6,2.2l1.8,0.5
		l0.6-2.2l0.5,0.1l-0.7,2.6L10.6,56.7z M11.7,52.9l4.5,1.7l0.8-2.2l-0.4-0.2l-0.6,1.7l-4-1.5L11.7,52.9L11.7,52.9z M12.9,50l0.2-0.5
		l2.3-0.2l-1.3-1.9l0.2-0.5l1.6,2.4l2.1,1l-0.2,0.4l-2.1-1L12.9,50z"/>
	<path class="st0" d="M21.8,37.4l0.7-0.6c0.3-0.2,0.6-0.5,0.9-0.7c0.2-0.1,0.5-0.2,0.8-0.1c0.3,0.1,0.5,0.2,0.7,0.4
		c0.2,0.2,0.3,0.5,0.3,0.8c0,0.3-0.1,0.5-0.3,0.8c-0.3,0.3-0.6,0.6-0.9,0.8l-0.3,0.2l1.4,1.7l-0.4,0.3L21.8,37.4z M22.5,37.5l1,1.2
		l0.6-0.5c0.2-0.1,0.4-0.3,0.5-0.5c0.1-0.1,0.1-0.3,0.1-0.5c0-0.2-0.1-0.3-0.2-0.4c-0.1-0.1-0.2-0.2-0.4-0.2c-0.1,0-0.3,0-0.4,0
		c-0.2,0.1-0.4,0.2-0.6,0.4L22.5,37.5L22.5,37.5z M25.2,34.6l2.7,3.9l0.4-0.3L27,36.4l0.2-0.2l2.7,0.8l0.5-0.3l-2.7-0.8
		c0.3-0.2,0.5-0.4,0.7-0.7c0.1-0.2,0.2-0.4,0.2-0.7c0-0.2-0.1-0.5-0.2-0.7c-0.2-0.2-0.4-0.4-0.7-0.5c-0.3-0.1-0.5-0.1-0.8,0.1
		c-0.3,0.2-0.6,0.3-0.9,0.6L25.2,34.6L25.2,34.6z M25.8,34.7l0.7-0.5c0.2-0.1,0.4-0.3,0.6-0.3c0.1,0,0.3,0,0.4,0
		c0.1,0.1,0.3,0.2,0.3,0.3c0.1,0.1,0.1,0.3,0.2,0.4c0,0.2,0,0.3-0.1,0.4c-0.1,0.2-0.3,0.4-0.5,0.5L26.7,36L25.8,34.7L25.8,34.7z
		 M31,30.9c0.6-0.3,1.3-0.4,1.9-0.2c1.3,0.4,2,1.8,1.6,3.1c-0.2,0.6-0.7,1.2-1.3,1.5c-0.6,0.3-1.3,0.4-1.9,0.2
		c-0.6-0.2-1.2-0.6-1.4-1.2c-0.2-0.4-0.3-0.8-0.3-1.3C29.7,32.1,30.2,31.3,31,30.9L31,30.9z M31.2,31.3c0.3-0.2,0.7-0.2,1-0.2
		c0.4,0,0.7,0.1,1,0.3c0.3,0.2,0.5,0.5,0.7,0.8c0.2,0.3,0.2,0.7,0.2,1c0,0.3-0.1,0.7-0.3,1c-0.2,0.3-0.5,0.5-0.8,0.7
		c-1,0.5-2.2,0.1-2.7-0.9c-0.2-0.3-0.3-0.7-0.2-1C30.1,32.3,30.5,31.6,31.2,31.3L31.2,31.3z M34.9,29.3l2.3-0.7l0.1,0.4l-1.8,0.6
		l0.5,1.4l1.8-0.6l0.1,0.4l-1.8,0.6l0.7,2.2l-0.5,0.1L34.9,29.3L34.9,29.3z M38.5,28.3l2.7-0.6l0.1,0.5L39,28.6l0.3,1.5l2.2-0.5
		l0.1,0.5l-2.2,0.5l0.4,1.8l2.2-0.5l0.1,0.5l-2.7,0.6L38.5,28.3L38.5,28.3z M42.3,31.3l0.4-0.3c0.3,0.5,0.7,0.7,1.1,0.7
		c0.2,0,0.3-0.1,0.4-0.2c0.1-0.1,0.2-0.2,0.3-0.3c0.1-0.1,0.1-0.3,0.1-0.4c0-0.2-0.1-0.3-0.2-0.4c-0.3-0.3-0.6-0.5-0.9-0.7
		c-0.3-0.2-0.6-0.3-0.8-0.6c-0.2-0.2-0.3-0.4-0.3-0.7c0-0.2,0-0.4,0.1-0.6c0.1-0.2,0.2-0.3,0.4-0.5c0.2-0.1,0.4-0.2,0.6-0.2
		c0.2,0,0.4,0,0.6,0.1c0.3,0.1,0.5,0.3,0.7,0.5l-0.3,0.3c-0.1-0.2-0.3-0.3-0.5-0.4c-0.1-0.1-0.3-0.1-0.4-0.1c-0.2,0-0.3,0.1-0.4,0.2
		c-0.1,0.1-0.2,0.3-0.1,0.4c0,0.1,0,0.2,0.1,0.3c0.1,0.1,0.2,0.2,0.3,0.3c0.1,0.1,0.3,0.2,0.7,0.4c0.4,0.2,0.7,0.4,0.9,0.7
		c0.2,0.2,0.3,0.4,0.3,0.7c0,0.3-0.1,0.7-0.3,0.9c-0.2,0.3-0.5,0.5-0.9,0.5c-0.3,0-0.6,0-0.8-0.1C42.8,31.9,42.5,31.6,42.3,31.3
		L42.3,31.3z M45.7,31l0.4-0.2c0.3,0.5,0.6,0.8,1,0.8c0.2,0,0.3,0,0.4-0.1c0.3-0.1,0.4-0.4,0.4-0.7c0-0.2-0.1-0.3-0.2-0.5
		c-0.2-0.3-0.5-0.5-0.8-0.7c-0.3-0.2-0.5-0.4-0.8-0.6c-0.2-0.2-0.3-0.5-0.3-0.7c0-0.4,0.2-0.8,0.5-1c0.2-0.1,0.4-0.2,0.6-0.2
		c0.2,0,0.4,0,0.6,0.2c0.2,0.2,0.5,0.4,0.6,0.6L48,28c-0.1-0.2-0.3-0.3-0.5-0.5c-0.1-0.1-0.3-0.1-0.4-0.1c-0.2,0-0.3,0.1-0.5,0.2
		c-0.1,0.1-0.2,0.3-0.2,0.4c0,0.1,0,0.2,0.1,0.3c0.1,0.1,0.1,0.2,0.2,0.3c0.1,0.1,0.3,0.2,0.6,0.5c0.3,0.2,0.6,0.5,0.9,0.8
		c0.1,0.2,0.2,0.5,0.2,0.7c0,0.3-0.1,0.7-0.4,0.9c-0.3,0.3-0.6,0.4-0.9,0.4c-0.3,0-0.6-0.1-0.8-0.2C46.1,31.5,45.9,31.3,45.7,31
		L45.7,31z M49.8,27.1l0.5,0l-0.3,4.7l-0.5,0L49.8,27.1z M54.1,27.5c0.7,0.1,1.3,0.5,1.7,1c0.8,1.1,0.5,2.7-0.6,3.5
		c-0.5,0.4-1.2,0.5-1.9,0.4c-0.7-0.1-1.3-0.5-1.6-1c-0.4-0.5-0.5-1.2-0.4-1.8c0.1-0.4,0.3-0.8,0.6-1.2c0.3-0.3,0.6-0.6,1.1-0.7
		C53.2,27.4,53.7,27.4,54.1,27.5L54.1,27.5z M54,27.9c-0.7-0.1-1.4,0.2-1.9,0.7c-0.2,0.3-0.4,0.6-0.4,1c-0.2,1.1,0.5,2.1,1.6,2.3
		c0,0,0,0,0,0c0.4,0.1,0.7,0,1.1-0.1c0.3-0.1,0.6-0.3,0.8-0.6c0.2-0.3,0.4-0.6,0.4-1c0.1-0.4,0-0.7-0.1-1.1
		c-0.1-0.3-0.3-0.6-0.6-0.8C54.7,28.2,54.4,28,54,27.9L54,27.9z M56.7,32.9l1.5-4.5l0.1,0l1.9,4.4l1.1-3.5l0.4,0.1l-1.5,4.5l-0.1,0
		l-1.9-4.4l-1.1,3.4L56.7,32.9L56.7,32.9z M65.2,31.2l-0.1-0.1l-4.2,3.2l0.5,0.2l1.4-1.1l1.8,0.9l0,1.7l0.5,0.2L65.2,31.2L65.2,31.2
		z M64.7,32.1L64.6,34l-1.4-0.7L64.7,32.1z M68.1,32.9l0.4,0.3l-2.3,3.6l1.5,1l-0.2,0.4l-2-1.2L68.1,32.9z"/>
	<path class="st0" d="M77.1,40.7l0.3,0.4l-2.2,1.8c-0.2,0.1-0.3,0.3-0.5,0.4c-0.1,0.1-0.2,0.3-0.3,0.4c0,0.2,0,0.3,0,0.5
		c0,0.2,0.1,0.4,0.2,0.5c0.2,0.2,0.5,0.4,0.8,0.4c0.2,0,0.3,0,0.5-0.1c0.2-0.1,0.4-0.3,0.6-0.4l2.3-1.8l0.3,0.4l-2.2,1.8
		c-0.3,0.2-0.6,0.4-0.9,0.6c-0.3,0.1-0.6,0.1-0.8,0c-0.3-0.1-0.6-0.3-0.8-0.5c-0.2-0.3-0.4-0.6-0.4-0.9c0-0.3,0-0.6,0.2-0.9
		c0.2-0.3,0.5-0.5,0.7-0.7L77.1,40.7L77.1,40.7z M76,47.2l0.2,0.4l3.1-1.8l-1.5,4.5l0.1,0.1L82,48l-0.2-0.4l-3.2,1.8l1.6-4.6
		l-0.1-0.1L76,47.2L76,47.2z M82.7,49.4l0.2,0.4l-4.3,2l-0.2-0.4C78.3,51.4,82.7,49.4,82.7,49.4z M83.3,51l-3.8,3.5l0,0.1l5.2,0.4
		l-0.2-0.5l-4-0.3l3-2.7L83.3,51L83.3,51z M85.1,56.3l0.5,2.7l-0.5,0.1l-0.4-2.2l-1.5,0.3l0.4,2.2l-0.5,0.1l-0.4-2.2L81,57.6
		l0.4,2.2l-0.5,0.1l-0.5-2.7L85.1,56.3L85.1,56.3z M85.7,60.3l0.1,0.9c0,0.4,0.1,0.7,0,1.1c0,0.3-0.2,0.5-0.4,0.7
		c-0.2,0.2-0.5,0.3-0.8,0.4c-0.2,0-0.5,0-0.7-0.1c-0.2-0.1-0.4-0.3-0.5-0.5c-0.1-0.3-0.2-0.6-0.2-0.9l-2.1,1.9l-0.1-0.6l2.1-1.9
		l0-0.3L81,61.3l0-0.5L85.7,60.3L85.7,60.3z M85.3,60.9L83.7,61l0.1,0.8c0,0.2,0.1,0.5,0.2,0.7c0.1,0.1,0.2,0.3,0.3,0.3
		c0.1,0.1,0.3,0.1,0.5,0.1c0.2,0,0.3-0.1,0.4-0.2c0.1-0.1,0.2-0.2,0.2-0.4c0-0.2,0.1-0.5,0-0.7L85.3,60.9L85.3,60.9z M82.1,64.3
		l0.2,0.4c-0.5,0.3-0.8,0.6-0.8,1c0,0.2,0,0.3,0.1,0.5c0.1,0.3,0.4,0.4,0.7,0.4c0.2,0,0.3-0.1,0.5-0.2c0.3-0.2,0.6-0.5,0.8-0.8
		c0.2-0.3,0.4-0.5,0.7-0.7c0.2-0.2,0.5-0.2,0.7-0.2c0.2,0,0.4,0.1,0.6,0.2c0.2,0.1,0.3,0.3,0.4,0.4c0.1,0.2,0.1,0.4,0.1,0.6
		c0,0.2-0.1,0.4-0.2,0.6c-0.2,0.2-0.4,0.4-0.6,0.6L85,66.7c0.2-0.1,0.3-0.3,0.5-0.4c0.1-0.1,0.1-0.3,0.1-0.4c0-0.2-0.1-0.3-0.2-0.5
		c-0.1-0.1-0.3-0.2-0.4-0.2c-0.1,0-0.2,0-0.3,0.1c-0.1,0.1-0.2,0.1-0.3,0.2c-0.1,0.1-0.2,0.3-0.5,0.6c-0.2,0.3-0.5,0.6-0.8,0.8
		c-0.2,0.1-0.5,0.2-0.7,0.2c-0.3,0-0.7-0.2-0.9-0.4c-0.2-0.3-0.4-0.6-0.4-1c0-0.3,0.1-0.6,0.2-0.8C81.5,64.7,81.8,64.4,82.1,64.3
		L82.1,64.3z M85.9,68.3l0,0.5l-4.8-0.3l0-0.5L85.9,68.3z M85.3,69.8l0.5,0.1l-0.5,2.6l-0.5-0.1l0.2-1l-4.2-0.7l0.1-0.5l4.2,0.7
		L85.3,69.8L85.3,69.8z M85.2,73.2l-0.1,0.5l-2.2,0.7l1.6,1.7l-0.1,0.5l-2-2.1l-2.2-0.6l0.1-0.5l2.2,0.6L85.2,73.2z"/>
	<path class="st0" d="M25.2,88.8l0.7,0.6c0.3,0.2,0.6,0.5,0.8,0.8c0.2,0.2,0.2,0.5,0.2,0.7c0,0.6-0.5,1.1-1,1.2
		c-0.3,0-0.6,0-0.8-0.1c-0.3-0.2-0.7-0.5-1-0.7l-0.3-0.2l-1.4,1.7l-0.4-0.3L25.2,88.8L25.2,88.8z M25.2,89.5l-1.1,1.2l0.6,0.5
		c0.2,0.2,0.4,0.3,0.6,0.4c0.1,0,0.3,0,0.5,0c0.2,0,0.3-0.1,0.4-0.3c0.1-0.1,0.2-0.3,0.2-0.4c0-0.2,0-0.3-0.1-0.4
		c-0.1-0.2-0.3-0.4-0.5-0.5L25.2,89.5L25.2,89.5z M28,91.2l-1.6,2.4c-0.2,0.3-0.4,0.6-0.5,0.9c-0.1,0.3-0.1,0.6,0.1,0.9
		c0.1,0.3,0.4,0.6,0.7,0.8c0.5,0.4,1.2,0.3,1.7,0c0.3-0.2,0.5-0.5,0.7-0.8l1.6-2.4l-0.4-0.3l-1.6,2.4c-0.1,0.2-0.3,0.4-0.5,0.6
		c-0.1,0.1-0.3,0.2-0.4,0.2c-0.1,0-0.3,0.1-0.5,0c-0.2,0-0.3-0.1-0.4-0.2c-0.2-0.1-0.3-0.2-0.4-0.4c-0.1-0.1-0.1-0.3-0.2-0.5
		c0-0.2,0-0.3,0.1-0.5c0-0.1,0.1-0.3,0.3-0.5l1.6-2.4L28,91.2L28,91.2z M29.4,97.6l2.2-4.2l0.1,0l1.1,4.7l1.7-3.2l0.4,0.2l-2.2,4.2
		l-0.1-0.1l-1.1-4.6l-1.7,3.2L29.4,97.6z M37.1,95.8l-1,3c-0.1,0.3-0.2,0.5-0.3,0.7c-0.1,0.1-0.2,0.2-0.3,0.2c-0.1,0-0.3,0-0.4,0
		c-0.1,0-0.2-0.1-0.3-0.2c-0.2-0.2-0.3-0.3-0.5-0.5L34,99.4c0.1,0.2,0.3,0.4,0.5,0.6c0.2,0.1,0.3,0.2,0.5,0.3c0.2,0.1,0.5,0.1,0.7,0
		c0.2-0.1,0.4-0.2,0.5-0.3c0.2-0.3,0.3-0.6,0.4-0.9l1-3.1L37.1,95.8L37.1,95.8z M40.5,96.8l1,5.1l-0.5-0.1l-0.4-1.7l-2-0.5l-1.1,1.3
		l-0.5-0.1l3.3-4.1L40.5,96.8L40.5,96.8z M40.2,97.8L39,99.3l1.6,0.4L40.2,97.8L40.2,97.8z M43.3,97.3l0.9,0.1
		c0.3,0,0.6,0.1,0.8,0.2c0.2,0.1,0.3,0.3,0.4,0.5c0.1,0.2,0.1,0.4,0.1,0.6c0,0.2-0.1,0.4-0.2,0.6c-0.1,0.2-0.3,0.3-0.5,0.4
		c0.2,0.1,0.4,0.2,0.5,0.4c0.1,0.1,0.2,0.3,0.3,0.5c0.1,0.2,0.1,0.4,0,0.5c0,0.4-0.2,0.7-0.5,0.9c-0.3,0.2-0.8,0.3-1.2,0.2l-1.3-0.2
		L43.3,97.3L43.3,97.3z M43.7,97.8l-0.2,1.5l0.3,0c0.2,0,0.5,0,0.7,0c0.2,0,0.3-0.1,0.4-0.2c0.1-0.1,0.2-0.3,0.2-0.4
		c0-0.2,0-0.4-0.2-0.5c-0.2-0.2-0.4-0.3-0.7-0.3L43.7,97.8L43.7,97.8z M43.5,99.8l-0.2,1.8l0.6,0.1c0.3,0,0.5,0,0.8,0
		c0.2,0,0.3-0.1,0.4-0.3c0.1-0.1,0.2-0.3,0.2-0.4c0-0.2,0-0.4-0.1-0.6c-0.1-0.2-0.3-0.3-0.5-0.4c-0.3-0.1-0.5-0.1-0.8-0.2L43.5,99.8
		L43.5,99.8z M49.8,97.3l0.5,0c-0.2,0.5-0.4,1-0.4,1.5c-0.1,0.6-0.1,1.2-0.1,1.8c0,0.6,0.1,1.1,0.2,1.6c0.1,0.5,0.3,0.9,0.5,1.4
		l-0.5,0c-0.2-0.4-0.3-0.9-0.4-1.3c-0.1-0.5-0.2-1.1-0.2-1.6c0-0.6,0-1.2,0.1-1.8C49.5,98.4,49.6,97.9,49.8,97.3L49.8,97.3z
		 M51.4,97.4l0.5,0l0.4,4.7l-0.5,0L51.4,97.4z M53.8,102l-0.9-4.7l0.1,0l3.8,2.9L56,96.7l0.5-0.1l0.9,4.7l-0.1,0l-3.8-2.9l0.7,3.5
		L53.8,102L53.8,102z M58.9,100.8l1.4-0.5c0.5-0.1,0.9-0.4,1.2-0.7c0.3-0.3,0.4-0.6,0.5-1c0.1-0.4,0-0.9-0.1-1.3
		c-0.2-0.5-0.4-0.9-0.8-1.2c-0.4-0.3-0.8-0.4-1.3-0.4c-0.5,0-1,0.2-1.5,0.4l-0.9,0.3L58.9,100.8L58.9,100.8z M59.2,100.2l-1.3-3.6
		l0.3-0.1c0.5-0.2,0.9-0.3,1.4-0.4c0.4,0,0.8,0.1,1.1,0.3c0.3,0.3,0.6,0.6,0.7,1c0.1,0.4,0.2,0.8,0.1,1.2c-0.1,0.3-0.3,0.7-0.6,0.9
		c-0.4,0.2-0.8,0.4-1.3,0.6L59.2,100.2L59.2,100.2z M61.8,94.6l0.4-0.2l2,4.3L63.7,99L61.8,94.6L61.8,94.6z M64.8,93.1l4.3,3
		l-0.4,0.3l-1.4-1l-1.8,1l0.2,1.7l-0.5,0.3L64.8,93.1L64.8,93.1L64.8,93.1z M65.3,94l0.2,1.9l1.4-0.8L65.3,94L65.3,94z M71.1,96.4
		c-0.1-0.5-0.3-1.1-0.5-1.6c-0.3-0.5-0.6-1-0.9-1.5c-0.3-0.4-0.7-0.8-1.1-1.2c-0.3-0.3-0.7-0.6-1.1-0.9l-0.4,0.3
		c0.4,0.3,0.8,0.5,1.1,0.9c0.4,0.4,0.8,0.8,1.1,1.2c0.4,0.5,0.7,1,0.9,1.6c0.2,0.5,0.4,1,0.5,1.5L71.1,96.4z"/>
	<path class="st0" d="M17.9,83.2c0.8,0,1.4,0.6,1.4,1.4s-0.6,1.4-1.4,1.4c-0.8,0-1.4-0.6-1.4-1.4C16.5,83.8,17.1,83.2,17.9,83.2z"/>
	<path class="st2" d="M17.9,86c-0.8,0-1.5-0.7-1.5-1.5s0.7-1.5,1.5-1.5c0.8,0,1.5,0.7,1.5,1.5C19.3,85.4,18.7,86,17.9,86
		C17.9,86,17.9,86,17.9,86z M17.9,83.3c-0.7,0-1.3,0.6-1.3,1.3c0,0.7,0.6,1.3,1.3,1.3c0.7,0,1.3-0.6,1.3-1.3
		C19.1,83.9,18.6,83.3,17.9,83.3L17.9,83.3z"/>
	<path class="st0" d="M77.4,83.2c0.8,0,1.4,0.6,1.4,1.4c0,0.8-0.6,1.4-1.4,1.4c-0.8,0-1.4-0.6-1.4-1.4C76,83.8,76.6,83.2,77.4,83.2
		C77.4,83.2,77.4,83.2,77.4,83.2z"/>
	<path class="st2" d="M77.4,86c-0.8,0-1.5-0.7-1.5-1.5c0-0.8,0.7-1.5,1.5-1.5s1.5,0.7,1.5,1.5C78.8,85.4,78.2,86,77.4,86z
		 M77.4,83.3c-0.7,0-1.3,0.6-1.3,1.3c0,0.7,0.6,1.3,1.3,1.3c0.7,0,1.3-0.6,1.3-1.3C78.6,83.9,78.1,83.3,77.4,83.3L77.4,83.3z"/>
	<rect x="102.1" y="24.8" class="st5" width="22.6" height="22.6"/>
	<path class="st2" d="M125.1,47.8h-23.3V24.5h23.3V47.8z M102.5,47h21.8V25.2h-21.8V47z"/>
	<rect x="102.1" y="52.5" class="st5" width="22.6" height="22.6"/>
	<path class="st2" d="M125.1,75.5h-23.3V52.2h23.3V75.5z M102.5,74.7h21.8V52.9h-21.8V74.7z"/>
	<rect x="102.1" y="80.2" class="st5" width="22.6" height="22.6"/>
	<path class="st2" d="M125.1,103.2h-23.3V79.9h23.3V103.2z M102.5,102.4h21.8V80.6h-21.8V102.4z"/>
	<path class="st2" d="M131.9,44c0.9,0.4,2,0.6,3,0.6c0.8,0,1.6-0.1,2.4-0.4c1.5-0.5,2.9-1.5,3.8-2.8c0.5-0.7,0.9-1.6,1.1-2.4
		c0.3-1,0.4-2,0.4-3.1c0-1.1-0.2-2.3-0.5-3.4c-0.3-1-0.8-1.9-1.5-2.6c-0.6-0.7-1.4-1.3-2.3-1.7c-1.9-0.8-4.1-0.8-6.1,0
		c-0.9,0.4-1.7,1-2.4,1.7c-0.7,0.8-1.2,1.7-1.6,2.7c-0.4,1.1-0.6,2.3-0.6,3.5c0,1.2,0.2,2.3,0.5,3.4c0.3,1,0.8,1.9,1.5,2.6
		C130.2,43,131,43.6,131.9,44z M130,34.1c0.1-0.6,0.3-1.3,0.6-1.9c0.3-0.6,0.6-1.1,1.1-1.5c0.4-0.4,0.9-0.8,1.5-1
		c0.6-0.2,1.3-0.4,1.9-0.4c1.3,0,2.5,0.5,3.4,1.4c0.4,0.4,0.8,1,1,1.5c0.3,0.6,0.5,1.2,0.6,1.8c0.1,0.6,0.2,1.3,0.2,2
		c0,0.9-0.1,1.8-0.4,2.6c-0.2,0.8-0.6,1.5-1,2.2c-0.4,0.6-1,1.1-1.7,1.5c-0.7,0.4-1.5,0.5-2.2,0.5c-0.6,0-1.3-0.1-1.8-0.4
		c-0.5-0.2-1-0.6-1.5-1c-0.4-0.4-0.8-0.9-1.1-1.5c-0.3-0.6-0.5-1.2-0.6-1.8c-0.2-0.7-0.2-1.4-0.2-2C129.8,35.5,129.8,34.8,130,34.1z
		"/>
	<polygon class="st2" points="170.2,42.6 163.1,42.6 163.1,36.7 169.4,36.7 169.4,34.9 163.1,34.9 163.1,29.7 169.8,29.7 169.8,28 
		160.9,28 160.9,44.4 170.2,44.4 	"/>
	<path class="st2" d="M188.1,44.4h2.1v-7l5.5-9.4h-2.4l-2.4,4.5c-0.3,0.6-0.6,1.2-0.9,1.8s-0.5,1.1-0.8,1.6h0
		c-0.2-0.4-0.3-0.8-0.5-1.1l-0.5-1.1c-0.2-0.4-0.4-0.8-0.6-1.2l-2.3-4.5h-2.4l5.2,9.4L188.1,44.4z"/>
	<path class="st2" d="M152.2,44.4l5.9-16.4h-2.3l-2.8,8.1c-0.4,1.1-0.7,2.1-1,3.1c-0.3,1-0.6,2-0.8,3h-0.1c-0.2-1-0.5-1.9-0.8-2.9
		c-0.3-1-0.6-2.1-1-3.2l-2.6-8.1h-2.3l5.4,16.4L152.2,44.4z"/>
	<polygon class="st2" points="183.1,42.6 176.1,42.6 176.1,28 173.9,28 173.9,44.4 183.1,44.4 	"/>
	<rect x="190.1" y="55.5" class="st2" width="1.8" height="16.4"/>
	<path class="st2" d="M218.3,71.9V55.5h-1.7v6.9c0,0.8,0,1.6,0,2.4c0,0.8,0,1.5,0.1,2.2s0.1,1.4,0.1,2.1l-0.1,0
		c-0.3-0.8-0.7-1.7-1.1-2.6c-0.4-0.9-0.9-1.8-1.4-2.8l-4.4-8.3h-2v16.4h1.7v-7c0-0.9,0-1.7,0-2.5c0-0.8,0-1.5,0-2.2
		c0-0.7,0-1.4-0.1-2.1l0.1,0c0.3,0.9,0.7,1.8,1.2,2.7c0.4,0.9,0.9,1.8,1.4,2.8l4.4,8.3H218.3z"/>
	<path class="st2" d="M130,64.8h1.7c0.5,0,0.9,0.1,1.4,0.4c0.4,0.2,0.7,0.6,0.9,1c0.3,0.6,0.4,1.2,0.5,1.8c0.2,1,0.4,1.9,0.5,2.5
		c0.1,0.5,0.2,0.9,0.4,1.4h1.9c-0.2-0.5-0.4-1.1-0.5-1.6c-0.2-0.8-0.4-1.7-0.6-2.9c-0.1-0.7-0.4-1.5-0.7-2.1
		c-0.3-0.5-0.7-0.9-1.3-1.2V64c0.5-0.2,0.9-0.5,1.3-0.9c0.4-0.4,0.7-0.9,0.9-1.4c0.2-0.6,0.4-1.3,0.4-1.9c0-0.6-0.1-1.2-0.3-1.8
		c-0.2-0.5-0.4-1-0.8-1.4c-0.4-0.5-1-0.8-1.6-1c-0.8-0.2-1.6-0.4-2.4-0.3c-0.4,0-0.8,0-1.2,0c-0.4,0-0.8,0.1-1.2,0.1s-0.7,0.1-1,0.2
		v16.2h1.8V64.8z M130,57.2c0.2-0.1,0.4-0.1,0.7-0.1c0.4,0,0.7-0.1,1.1,0c0.6,0,1.1,0.1,1.7,0.3c0.5,0.2,0.9,0.6,1.1,1
		c0.5,1.1,0.5,2.3,0,3.4c-0.2,0.5-0.6,0.8-1.1,1.1c-0.5,0.3-1.1,0.4-1.7,0.4H130V57.2z"/>
	<path class="st2" d="M204.5,57.5c-0.5-0.7-1.2-1.3-2-1.7c-1.6-0.8-3.5-0.8-5.2,0c-0.8,0.4-1.5,1-2,1.7c-0.6,0.8-1.1,1.7-1.3,2.7
		c-0.3,1.2-0.5,2.3-0.5,3.5c0,1.1,0.1,2.3,0.5,3.4c0.3,0.9,0.7,1.8,1.3,2.6c0.5,0.7,1.2,1.3,2,1.7c0.8,0.4,1.6,0.6,2.5,0.6
		c0.7,0,1.4-0.1,2-0.4c0.7-0.2,1.3-0.6,1.8-1.1c0.6-0.5,1-1.1,1.4-1.7c0.4-0.8,0.7-1.6,0.9-2.4c0.2-1,0.3-2,0.3-3.1
		c0-1.1-0.1-2.3-0.4-3.4C205.5,59.2,205.1,58.3,204.5,57.5z M204,66.3c-0.2,0.8-0.5,1.5-0.9,2.2c-0.3,0.6-0.8,1.1-1.4,1.5
		c-0.6,0.4-1.2,0.5-1.9,0.5c-0.5,0-1.1-0.1-1.6-0.4c-0.5-0.2-0.9-0.6-1.2-1c-0.4-0.4-0.7-0.9-0.9-1.5c-0.3-0.6-0.4-1.2-0.6-1.8
		c-0.1-0.7-0.2-1.4-0.2-2c0-0.7,0.1-1.4,0.2-2.1c0.1-0.6,0.3-1.3,0.5-1.9c0.2-0.5,0.5-1.1,0.9-1.5c0.3-0.4,0.8-0.8,1.3-1
		c0.5-0.2,1.1-0.4,1.6-0.4c0.6,0,1.1,0.1,1.6,0.4c0.5,0.3,0.9,0.6,1.2,1c0.4,0.5,0.7,1,0.9,1.5c0.2,0.6,0.4,1.2,0.5,1.8
		c0.1,0.6,0.2,1.3,0.2,2C204.3,64.5,204.2,65.4,204,66.3L204,66.3z"/>
	<path class="st2" d="M231.3,71.9l-4.7-16.4h-2.1l-4.7,16.4h1.9l1.4-5.2h4.9l1.5,5.2H231.3z M223.4,65.1l1.4-4.7
		c0.1-0.5,0.3-1,0.4-1.5s0.2-1,0.3-1.5h0c0.1,0.5,0.2,1,0.3,1.5s0.2,1,0.4,1.5l1.4,4.7H223.4z"/>
	<polygon class="st2" points="159.7,57.3 159.7,55.5 152.2,55.5 152.2,71.9 154,71.9 154,64.5 159.3,64.5 159.3,62.7 154,62.7 
		154,57.3 	"/>
	<path class="st2" d="M177.2,63.8c-0.6-0.5-1.3-0.9-2-1.2c-0.5-0.2-1.1-0.5-1.6-0.9c-0.4-0.3-0.7-0.6-0.9-1
		c-0.2-0.4-0.3-0.9-0.3-1.3c0-0.3,0-0.6,0.1-0.9c0.1-0.3,0.3-0.6,0.5-0.8c0.2-0.3,0.5-0.4,0.8-0.6c0.4-0.2,0.8-0.2,1.2-0.2
		c0.4,0,0.8,0,1.1,0.1c0.3,0.1,0.6,0.2,0.9,0.3c0.2,0.1,0.4,0.2,0.6,0.3l0.5-1.7c-0.2-0.2-0.5-0.3-0.7-0.4c-0.3-0.1-0.7-0.2-1-0.3
		c-0.4-0.1-0.8-0.1-1.3-0.1c-0.6,0-1.3,0.1-1.8,0.3c-1.1,0.4-1.9,1.3-2.3,2.3c-0.2,0.6-0.3,1.2-0.3,1.8c0,0.7,0.1,1.4,0.4,2
		c0.3,0.6,0.7,1.1,1.3,1.5c0.6,0.5,1.3,0.9,2,1.1c0.5,0.2,1,0.5,1.5,0.9c0.4,0.3,0.6,0.6,0.8,1c0.2,0.4,0.3,0.9,0.3,1.3
		c0,0.5-0.1,1-0.3,1.5c-0.2,0.4-0.6,0.8-1,1c-0.5,0.2-1,0.4-1.6,0.4c-0.6,0-1.2-0.1-1.8-0.3c-0.5-0.2-1-0.4-1.4-0.8l-0.5,1.8
		c0.3,0.2,0.6,0.4,1,0.5c0.8,0.3,1.7,0.5,2.6,0.5c0.7,0,1.5-0.1,2.1-0.4c0.6-0.2,1.1-0.6,1.5-1c0.4-0.4,0.7-1,0.9-1.5
		c0.2-0.6,0.3-1.2,0.3-1.8c0-0.7-0.1-1.4-0.4-2.1C178.1,64.7,177.7,64.2,177.2,63.8z"/>
	<path class="st2" d="M183.4,72.2c0.7,0,1.5-0.1,2.1-0.4c0.6-0.2,1.1-0.6,1.5-1c0.4-0.4,0.7-1,0.9-1.5c0.2-0.6,0.3-1.2,0.3-1.8
		c0-0.7-0.1-1.4-0.4-2.1c-0.3-0.6-0.7-1.1-1.2-1.6c-0.6-0.5-1.3-0.9-2-1.2c-0.5-0.2-1.1-0.5-1.6-0.9c-0.4-0.3-0.7-0.6-0.9-1
		c-0.2-0.4-0.3-0.9-0.3-1.3c0-0.3,0-0.6,0.1-0.9c0.1-0.3,0.3-0.6,0.5-0.8c0.2-0.3,0.5-0.4,0.8-0.6c0.4-0.2,0.8-0.2,1.2-0.2
		c0.4,0,0.8,0,1.1,0.1c0.3,0.1,0.6,0.2,0.9,0.3c0.2,0.1,0.4,0.2,0.6,0.3l0.5-1.7c-0.2-0.2-0.5-0.3-0.7-0.4c-0.3-0.1-0.7-0.2-1-0.3
		c-0.4-0.1-0.8-0.1-1.3-0.1c-0.6,0-1.3,0.1-1.8,0.3c-1.1,0.4-1.9,1.3-2.3,2.3c-0.2,0.6-0.3,1.2-0.3,1.8c0,0.7,0.1,1.4,0.4,2
		c0.3,0.6,0.7,1.1,1.3,1.5c0.6,0.5,1.3,0.9,2,1.1c0.5,0.2,1,0.5,1.5,0.9c0.4,0.3,0.6,0.6,0.8,1c0.2,0.4,0.3,0.9,0.3,1.3
		c0,0.5-0.1,1-0.3,1.5c-0.2,0.4-0.6,0.8-1,1c-0.5,0.2-1,0.4-1.6,0.4c-1.2,0-2.3-0.4-3.2-1.1l-0.5,1.8c0.3,0.2,0.6,0.4,1,0.5
		C181.7,71.9,182.5,72.1,183.4,72.2L183.4,72.2z"/>
	<polygon class="st2" points="240.4,70.1 234.5,70.1 234.5,55.5 232.7,55.5 232.7,71.9 240.4,71.9 	"/>
	<polygon class="st2" points="169.1,57.3 169.1,55.5 161.6,55.5 161.6,71.9 169.4,71.9 169.4,70.1 163.4,70.1 163.4,64.2 
		168.8,64.2 168.8,62.4 163.4,62.4 163.4,57.3 	"/>
	<path class="st2" d="M148.9,57.5c-0.5-0.7-1.2-1.3-2-1.7c-1.6-0.8-3.5-0.8-5.2,0c-0.8,0.4-1.5,1-2,1.7c-0.6,0.8-1.1,1.7-1.3,2.7
		c-0.3,1.2-0.5,2.3-0.5,3.5c0,1.1,0.1,2.3,0.5,3.4c0.3,0.9,0.7,1.8,1.3,2.6c0.5,0.7,1.2,1.3,2,1.7c0.8,0.4,1.7,0.6,2.5,0.6
		c0.7,0,1.4-0.1,2-0.4c0.7-0.2,1.2-0.6,1.8-1.1c0.6-0.5,1-1.1,1.4-1.7c0.4-0.8,0.7-1.6,0.9-2.4c0.2-1,0.3-2,0.3-3.1
		c0-1.1-0.1-2.3-0.4-3.4C149.9,59.2,149.4,58.3,148.9,57.5z M148.4,66.3c-0.2,0.8-0.5,1.5-0.9,2.2c-0.3,0.6-0.8,1.1-1.4,1.5
		c-1,0.6-2.3,0.7-3.4,0.2c-0.5-0.2-0.9-0.6-1.2-1c-0.4-0.4-0.7-0.9-0.9-1.5c-0.3-0.6-0.4-1.2-0.6-1.8c-0.1-0.7-0.2-1.4-0.2-2
		c0-0.7,0.1-1.4,0.2-2.1c0.1-0.6,0.3-1.3,0.5-1.9c0.2-0.5,0.5-1.1,0.9-1.5c0.3-0.4,0.8-0.8,1.3-1c0.5-0.2,1.1-0.4,1.6-0.4
		c0.6,0,1.1,0.1,1.6,0.4c0.5,0.3,0.9,0.6,1.2,1c0.4,0.5,0.7,1,0.9,1.5c0.2,0.6,0.4,1.2,0.5,1.8C148.8,63.2,148.7,64.7,148.4,66.3
		L148.4,66.3z"/>
	<path class="st2" d="M159.7,91.1c-0.4,1.1-0.7,2.1-1,3.1c-0.3,1-0.6,2-0.8,3h0c-0.2-1-0.5-1.9-0.8-2.9c-0.3-1-0.6-2.1-1-3.2
		l-2.6-8.1h-2.3l5.4,16.4h2.3l5.9-16.4h-2.3L159.7,91.1z"/>
	<polygon class="st2" points="214,84.8 219,84.8 219,99.4 221.1,99.4 221.1,84.8 226.2,84.8 226.2,83 214,83 	"/>
	<path class="st2" d="M238.8,83l-2.4,4.5c-0.3,0.6-0.6,1.2-0.9,1.8s-0.5,1.1-0.8,1.6h0c-0.2-0.4-0.3-0.8-0.5-1.1l-0.5-1.1
		c-0.2-0.4-0.4-0.8-0.6-1.2l-2.3-4.5h-2.4l5.2,9.4v7h2.1v-7l5.5-9.4H238.8z"/>
	<path class="st2" d="M190.5,94.9c-0.1-0.8-0.4-1.5-0.9-2.1c-0.4-0.5-0.9-1-1.5-1.2v-0.1c0.6-0.2,1.1-0.5,1.6-0.9
		c0.5-0.4,0.8-0.9,1.1-1.4c0.3-0.6,0.4-1.2,0.4-1.9c0-0.6-0.1-1.2-0.4-1.8c-0.2-0.5-0.5-1-0.9-1.4c-0.5-0.5-1.2-0.8-1.9-1
		c-0.9-0.2-1.9-0.4-2.8-0.3c-0.5,0-1,0-1.5,0c-0.5,0-1,0.1-1.4,0.1c-0.4,0.1-0.8,0.1-1.2,0.2v16.2h2.1v-7.1h2c0.6,0,1.1,0.1,1.6,0.4
		c0.4,0.2,0.8,0.6,1.1,1c0.3,0.6,0.5,1.2,0.6,1.8c0.2,1,0.4,1.9,0.6,2.5c0.1,0.5,0.3,0.9,0.5,1.4h2.2c-0.2-0.5-0.4-1.1-0.6-1.6
		C191,97,190.8,96.1,190.5,94.9z M187.3,90.3c-0.6,0.3-1.3,0.4-2,0.4h-2.2v-6c0.3-0.1,0.5-0.1,0.8-0.1c0.4,0,0.8,0,1.3,0
		c0.7,0,1.3,0.1,2,0.3c0.5,0.2,1,0.5,1.3,1c0.9,1.4,0.6,3.3-0.8,4.2C187.6,90.2,187.5,90.3,187.3,90.3L187.3,90.3z"/>
	<path class="st2" d="M202.7,91.3c-0.7-0.5-1.5-0.9-2.3-1.2c-0.6-0.2-1.3-0.5-1.9-0.9c-0.4-0.2-0.8-0.6-1.1-1
		c-0.2-0.4-0.4-0.8-0.3-1.3c0-0.3,0.1-0.6,0.2-0.9c0.1-0.3,0.3-0.6,0.5-0.8c0.3-0.3,0.6-0.5,1-0.6c0.5-0.2,0.9-0.2,1.4-0.2
		c0.4,0,0.9,0,1.3,0.1c0.4,0.1,0.7,0.2,1,0.3c0.2,0.1,0.5,0.2,0.7,0.3l0.6-1.7c-0.3-0.2-0.6-0.3-0.9-0.4c-0.4-0.1-0.8-0.2-1.2-0.3
		c-0.5-0.1-1-0.1-1.5-0.1c-0.7,0-1.5,0.1-2.2,0.3c-0.6,0.2-1.2,0.5-1.7,0.9c-0.5,0.4-0.8,0.9-1.1,1.4c-0.3,0.6-0.4,1.2-0.4,1.8
		c0,0.7,0.2,1.4,0.5,2c0.4,0.6,0.9,1.1,1.5,1.5c0.7,0.5,1.5,0.9,2.3,1.1c0.6,0.2,1.2,0.5,1.8,0.9c0.4,0.3,0.8,0.6,1,1
		c0.2,0.4,0.3,0.9,0.3,1.3c0,0.5-0.1,1-0.4,1.5c-0.3,0.4-0.7,0.8-1.2,1c-0.6,0.3-1.2,0.4-1.9,0.4c-0.7,0-1.4-0.1-2.1-0.3
		c-0.6-0.2-1.2-0.4-1.7-0.8l-0.6,1.8c0.4,0.2,0.7,0.4,1.1,0.5c0.5,0.2,1,0.3,1.5,0.4c0.5,0.1,1.1,0.1,1.6,0.1c0.9,0,1.7-0.1,2.5-0.4
		c0.7-0.2,1.3-0.6,1.8-1c0.5-0.4,0.8-0.9,1.1-1.5c0.2-0.6,0.4-1.2,0.4-1.8C204.6,93.5,203.9,92.1,202.7,91.3L202.7,91.3z"/>
	<polygon class="st2" points="169.9,91.7 176.3,91.7 176.3,90 169.9,90 169.9,84.8 176.7,84.8 176.7,83 167.8,83 167.8,99.4 
		177,99.4 177,97.6 169.9,97.6 	"/>
	<path class="st2" d="M138.8,89.9c0,0.9,0,1.6,0,2.4c0,0.8,0,1.5,0.1,2.2c0,0.7,0.1,1.4,0.2,2.1l-0.1,0c-0.4-0.8-0.8-1.7-1.3-2.6
		c-0.5-0.9-1-1.8-1.6-2.8l-5.2-8.3h-2.3v16.4h2v-7c0-0.9,0-1.7,0-2.5s0-1.5,0-2.2c0-0.7-0.1-1.4-0.1-2.1l0.1,0
		c0.4,0.9,0.9,1.8,1.4,2.7c0.5,0.9,1.1,1.8,1.7,2.8l5.2,8.3h2.1V83h-2L138.8,89.9z"/>
	<rect x="145.8" y="83" class="st2" width="2.1" height="16.4"/>
	<rect x="208.7" y="83" class="st2" width="2.1" height="16.4"/>
	<path class="st0" d="M107.8,43.5h9.2v-1.7h-7V28h-2.1V43.5L107.8,43.5z M107.8,71.2h2.1V65c0.3,0.1,0.5,0.1,0.8,0.1
		c0.3,0,0.6,0,0.9,0c0.7,0,1.3-0.1,2-0.2c0.6-0.1,1.2-0.3,1.7-0.6c0.5-0.2,0.9-0.6,1.3-0.9c0.4-0.4,0.7-0.9,0.9-1.4
		c0.2-0.6,0.3-1.2,0.3-1.9c0-0.6-0.1-1.3-0.4-1.9c-0.2-0.5-0.6-1-1-1.4c-0.5-0.5-1.2-0.8-1.9-1c-0.9-0.2-1.8-0.4-2.7-0.3
		c-0.9,0-1.6,0-2.3,0.1c-0.7,0.1-1.3,0.1-1.8,0.2L107.8,71.2L107.8,71.2z M109.9,57.3c0.3-0.1,0.5-0.1,0.8-0.1c0.3,0,0.7,0,1.2,0
		c0.7,0,1.4,0.1,2,0.3c0.5,0.2,1,0.5,1.3,1c0.3,0.5,0.5,1.1,0.5,1.7c0,0.6-0.2,1.3-0.5,1.8c-0.3,0.5-0.8,0.9-1.4,1.1
		c-0.7,0.3-1.4,0.4-2.2,0.4c-0.4,0-0.7,0-1,0c-0.3,0-0.5-0.1-0.8-0.1V57.3z M107.8,83.4v9.2c0,1,0.1,2.1,0.4,3.1
		c0.3,0.8,0.7,1.5,1.2,2.1c0.5,0.5,1.2,0.9,1.9,1.1c0.8,0.2,1.5,0.4,2.3,0.4c0.8,0,1.7-0.1,2.5-0.4c0.7-0.2,1.4-0.6,2-1.2
		c0.6-0.6,1-1.3,1.3-2.1c0.3-1,0.5-2,0.5-3.1v-9.1h-2.1v9.2c0,1-0.1,1.9-0.5,2.8c-0.3,0.7-0.8,1.2-1.4,1.6c-0.6,0.4-1.4,0.5-2.1,0.5
		c-0.7,0-1.4-0.2-2-0.5c-0.6-0.4-1.1-0.9-1.4-1.6c-0.4-0.9-0.5-1.8-0.5-2.8v-9.2H107.8z"/>
	<rect x="2.8" y="18.6" class="st5" width="240.4" height="2.3"/>
	<path class="st2" d="M243.5,21.2H2.5v-2.9h241V21.2z M3.1,20.6h239.7v-1.7H3.1V20.6z"/>
	<rect x="2.8" y="109.1" class="st5" width="240.4" height="2.3"/>
	<path class="st2" d="M243.5,111.7H2.5v-2.9h241V111.7z M3.1,111.1h239.7v-1.7H3.1V111.1z"/>
</g>
</svg>
